<svg xmlns="http://www.w3.org/2000/svg" xmlns:xlink="http://www.w3.org/1999/xlink" version="1.1" width="400px" height="300px" style="shape-rendering:geometricPrecision; text-rendering:geometricPrecision; image-rendering:optimizeQuality; fill-rule:evenodd; clip-rule:evenodd">
<g><path style="opacity:0.92" fill="#fbd900" d="M 399.5,145.5 C 399.5,148.5 399.5,151.5 399.5,154.5C 374.108,197.607 348.941,240.94 324,284.5C 323.097,285.701 321.931,286.535 320.5,287C 242.167,287.667 163.833,287.667 85.5,287C 82.9057,285.661 81.4057,283.494 81,280.5C 81.9311,253.487 76.5977,227.82 65,203.5C 50.6265,182.296 31.7932,166.296 8.5,155.5C 4.58953,150.479 4.7562,145.479 9,140.5C 33.3333,98.5 57.6667,56.5 82,14.5C 82.9025,13.2986 84.0692,12.4652 85.5,12C 163.833,11.3333 242.167,11.3333 320.5,12C 323.094,13.339 324.594,15.5056 325,18.5C 324.499,44.3293 329.499,68.9959 340,92.5C 349.41,107.911 361.576,120.744 376.5,131C 384.231,135.858 391.898,140.691 399.5,145.5 Z M 88.5,18.5 C 164.833,18.5 241.167,18.5 317.5,18.5C 316.541,45.7528 321.708,71.7528 333,96.5C 347.803,119.972 367.637,137.805 392.5,150C 367.374,193.085 342.374,236.252 317.5,279.5C 241.17,280.5 164.836,280.833 88.5,280.5C 89.8734,252.067 84.3734,225.067 72,199.5C 57.0216,177.428 37.5216,160.594 13.5,149C 38.9027,105.69 63.9027,62.1899 88.5,18.5 Z"/></g>
<g><path style="opacity:0.995" fill="#fe0000" d="M 95.5,27.5 C 167.167,27.5 238.833,27.5 310.5,27.5C 309.575,53.9636 315.075,78.9636 327,102.5C 335.789,116.289 346.956,127.789 360.5,137C 367.455,140.967 374.121,145.3 380.5,150C 357.679,190.644 334.345,230.978 310.5,271C 238.834,271.5 167.167,271.667 95.5,271.5C 96.614,243.898 90.7806,217.898 78,193.5C 71.9171,184.082 64.4171,175.915 55.5,169C 45.8144,161.827 35.8144,155.16 25.5,149C 48.4592,108.244 71.7925,67.7437 95.5,27.5 Z"/></g>
<g><path style="opacity:0.814" fill="#fe0000" d="M 362.5,30.5 C 363.675,30.281 364.675,30.6143 365.5,31.5C 367.912,36.6587 370.579,41.6587 373.5,46.5C 380.241,48.3781 386.908,50.3781 393.5,52.5C 389.148,57.0178 384.981,61.6844 381,66.5C 381.165,73.1654 381.665,79.8321 382.5,86.5C 376.176,84.2559 370.009,81.5892 364,78.5C 357.991,81.5892 351.824,84.2559 345.5,86.5C 346.335,79.8321 346.835,73.1654 347,66.5C 343.019,61.6844 338.852,57.0178 334.5,52.5C 341.092,50.3781 347.759,48.3781 354.5,46.5C 357.705,41.4235 360.372,36.0901 362.5,30.5 Z M 363.5,42.5 C 365.474,45.7699 367.474,49.1032 369.5,52.5C 373.434,53.8545 377.434,55.0211 381.5,56C 378.269,58.7273 375.603,61.894 373.5,65.5C 374.167,68.8333 374.833,72.1667 375.5,75.5C 375.167,75.8333 374.833,76.1667 374.5,76.5C 371.167,74.8333 367.833,73.1667 364.5,71.5C 360.5,73.3478 356.5,74.8478 352.5,76C 353.246,72.7196 353.913,69.3862 354.5,66C 352.607,62.101 349.941,58.7676 346.5,56C 350.566,55.0211 354.566,53.8545 358.5,52.5C 360.705,49.4234 362.372,46.0901 363.5,42.5 Z"/></g>
<g><path style="opacity:0.78" fill="#fe0000" d="M 32.5,43.5 C 33.4959,43.4142 34.3292,43.7476 35,44.5C 39.0331,51.0377 42.8665,57.7043 46.5,64.5C 37.8333,65.8333 29.1667,65.8333 20.5,64.5C 24.5278,57.4829 28.5278,50.4829 32.5,43.5 Z M 32.5,51.5 C 35.732,54.4127 38.3987,57.9127 40.5,62C 35.8333,62.6667 31.1667,62.6667 26.5,62C 28.9031,58.6894 30.9031,55.1894 32.5,51.5 Z"/></g>
<g><path style="opacity:0.911" fill="#fe0000" d="M 24.5,200.5 C 33.4178,200.183 42.2511,200.516 51,201.5C 55.1087,209.383 58.942,217.383 62.5,225.5C 58.9027,233.861 54.9027,242.028 50.5,250C 41.5883,250.816 32.755,250.65 24,249.5C 19.8913,241.617 16.058,233.617 12.5,225.5C 16.2384,217.024 20.2384,208.69 24.5,200.5 Z M 29.5,209.5 C 34.8746,209.172 40.2079,209.505 45.5,210.5C 48.1094,215.385 50.4428,220.385 52.5,225.5C 50.4428,230.615 48.1094,235.615 45.5,240.5C 40.1667,241.833 34.8333,241.833 29.5,240.5C 26.8906,235.615 24.5572,230.615 22.5,225.5C 24.8426,220.15 27.176,214.817 29.5,209.5 Z"/></g>
<g><path style="opacity:0.78" fill="#fe0000" d="M 366.5,239.5 C 367.496,239.414 368.329,239.748 369,240.5C 373.033,247.038 376.866,253.704 380.5,260.5C 371.833,261.833 363.167,261.833 354.5,260.5C 358.528,253.483 362.528,246.483 366.5,239.5 Z M 366.5,247.5 C 369.732,250.413 372.399,253.913 374.5,258C 369.833,258.667 365.167,258.667 360.5,258C 362.903,254.689 364.903,251.189 366.5,247.5 Z"/></g>
<g><path style="opacity:0.666" fill="#fe0000" d="M 54.5,256.5 C 67.1911,254.703 72.3578,260.369 70,273.5C 65.9834,280.138 60.1501,282.304 52.5,280C 44.1411,274.256 44.4744,272.256 53.5,274C 59.4694,271.897 61.6361,267.73 60,261.5C 58.9243,258.921 57.091,257.254 54.5,256.5 Z M 63.5,260.5 C 69.3199,266.752 68.6533,272.252 61.5,277C 58.8333,277.667 56.1667,277.667 53.5,277C 62.2649,274.992 65.5982,269.492 63.5,260.5 Z"/></g>
</svg>