<svg id="Group_3_copy" data-name="Group 3 copy" xmlns="http://www.w3.org/2000/svg" width="400" height="300" viewBox="0 0 400 300">
  <defs>
    <style>
      .cls-1 {
        fill: #ff0;
      }

      .cls-1, .cls-2, .cls-3, .cls-4 {
        fill-rule: evenodd;
      }

      .cls-2 {
        fill: #707021;
      }

      .cls-3 {
        fill: #ed1c24;
      }

      .cls-4 {
        fill: #171313;
      }
    </style>
  </defs>
  <path class="cls-1" d="M218.139,55.137c13.528-.248,24.793.953,34.969,4.124C292.4,71.5,322.787,92.812,338.475,129.633c8.179,19.2,10.819,47.259,3.085,69.6a96.808,96.808,0,0,1-15.685,28.613c-11.336,14.414-42.665,34.6-71.481,29.128-16.7-3.172-33.181-13.4-54.769-7.991-11.419,2.863-20.174,8.775-31.369,12.116-27.892,8.323-66.943,6.247-86.653-7.476-16.056-11.178-21.865-28.725-28.8-49.234-4.647-13.746-9.036-27.4-12.085-43.049-1.929-9.9-1.492-22.521.257-31.706,6.437-33.792,20.586-57.09,49.112-68.31,23.037-9.061,40.851,1.824,62.739,5.413,17.855,2.928,32.5-4.256,45.254-7.991Z"/>
  <path class="cls-2" d="M90.434,38.123c22.151-.359,38.592,4.161,56.067,8.684l24.64,5.619a2.9,2.9,0,0,0-.252,2.3l0.755,0.255,7.291-1.022,18.857,4.087V58.3l-13.829,4.342c-6.218,1.984-12.728,2.625-19.862,3.831-12.934,2.188-28.532-3.467-37.462-6.641-4.1-1.459-10.347-4.044-16.343-3.065C103.125,57.94,97,58.528,91.188,60.855c-27.5,11.009-48.9,40.5-49.279,78.926-3.659-2.938-6.96-9.486-8.045-14.815-0.747-3.665,1.863-6.291.251-9.195l-2.011.511c-5.266-36.1,8.356-61.467,32.182-72.029a82.371,82.371,0,0,1,17.1-5.108Zm17.1,5.619-2.263.766v2.043l0.754,0.255c1.733,0.73,8.646.3,10.308-.511q-0.251-1.149-.5-2.3Zm15.085,1.277-0.754,1.022-0.252,1.022,0.755,1.022c2.485,0.542,12.714,4.686,9.554-.511Zm-25.142.255C95,46.455,90.3,46.3,88.925,48.595c-0.147,1.05-.233,1.192.754,1.788,2.034,0.721,8.354-1.687,10.057-2.81a3.328,3.328,0,0,0-.754-2.3H97.474Zm41.233,4.853-1.006.766c0.01,1.409-.07,1.478.755,2.043a18.209,18.209,0,0,0,9.805,2.043,2.31,2.31,0,0,0-.251-2.81Zm-56.57.511c-2.416,1.664-6.836,2.524-8.3,5.108-0.147,1.05-.233,1.192.754,1.788,1.992,0.693,10.319-3.852,8.8-6.641ZM154.8,53.193l-0.754,1.022q0.252,0.894.5,1.788c3.153,0.673,8.409.965,10.811-.511a3.329,3.329,0,0,0-.754-2.3H154.8ZM67.3,59.578l-7.04,6.386L60.515,67.5l1.76,0.511,7.543-6.641-0.754-1.788H67.3Zm206.921,2.3h9.554l8.8,4.342,1.006-.766-0.252-1.532-1-1.277c31.2,1.627,49.193,23.349,57.073,49.041,2.78,9.064,5.624,23.3,3.017,35.249-1.218,5.582-3.113,11.3-5.783,15.581l-4.525,6.385h-0.252c0.789-43.592-24.252-74.857-50.285-91.441-9.063-5.774-20.143-8.823-29.416-14.815ZM298.612,67.5l-0.754,1.022a3.3,3.3,0,0,0,1.006,2.3c2.86,1.2,4.425,4.1,7.794,4.6l1.006-.766-0.252-1.277C306.3,71.172,301.463,67.806,298.612,67.5ZM54.983,70.817l-6.034,7.407L49.2,79.5l0.5,0.766c3.141-.31,6.008-5.252,7.543-7.407l-0.754-2.043H54.983Zm256.955,6.9-0.755,1.022c0.541,3.153,5.309,6.241,7.543,7.918,1.29-.573,1.51-0.617,1.509-2.554l-7.04-6.386h-1.257ZM44.926,84.354c-1.695,2.469-5.013,6.42-4.526,9.962l0.754,0.255h1.509l4.526-8.429a3.2,3.2,0,0,0-.754-1.788H44.926Zm278.829,5.364L323,90.74c0.282,2.219,5.309,8.792,7.04,8.429,0.963-.337.523,0,1.006-0.766q0.126-.511.251-1.022l-6.285-7.663h-1.257ZM37.886,99.424c-1.744,1.807-4.571,8.072-3.269,10.983h2.011l3.017-9.706-0.5-1.021Zm295.926,3.831q-0.378.512-.755,1.022c0.458,3.306,3.35,6.734,5.029,9.195l1.508-.255,0.755-.511c-0.195-3.213-3.244-7.842-5.28-9.451h-1.257Zm8.3,14.815q-0.378.51-.755,1.022c-0.522,2.226,2.844,8.659,4.526,9.961h0.251a7.634,7.634,0,0,0,1.509-1.532,43.82,43.82,0,0,0-4.274-9.451h-1.257Zm6.034,15.836c-1.755,2.031.523,8.988,2.011,11.239h0.252l1.508-.256c0.084-.255.168-0.511,0.251-0.766,0.771-2.386-1.591-8.43-2.765-10.217h-1.257Zm-140.8,111.62c18.909-.081,28.552,5.834,42.993,8.94,12.395,2.666,25.366-1.031,34.948-3.576l-0.252.511-8.3,5.874-16.846,9.962q-0.25-.894-0.5-1.788l-10.308-.766q-0.252.894-.5,1.788l0.754,1.021,8.3,1.022h-0.5c-4.187,3.244-10.138,4.812-15.336,6.9-24.639,9.88-57.711,13.811-87.244,5.62-4.873-1.352-10.576-1.9-14.583-4.342v-0.256l6.537-.766,0.252-.511a3.88,3.88,0,0,0-.5-2.043c-3.116-.594-9.4.1-11.063,2.043-9.155-3.618-17-8.957-25.394-12.516v-0.255l15.337,1.532,12.32-.51c11.666-1.947,22.01-1.952,31.931-5.109,8.149-2.593,15.221-6.683,22.879-9.706C196.727,246.828,202.43,247.527,207.346,245.526Zm2.011,9.961c-3.144,1.177-7.042.359-9.554,1.788q0.126,0.767.251,1.533l0.5,0.766c2.97,0.008,8.139-.3,10.309-1.532q0.124-.257.251-0.511C210.8,256.063,210.53,256.031,209.357,255.487Zm8.3,0.256a2.721,2.721,0,0,0-1.006,1.022v1.277a0.967,0.967,0,0,0,.5.511c1.863,1.223,8.542,2.106,10.309,1.277q0.124-.257.251-0.511l-1.006-2.044Zm-24.639,3.32-8.8,4.343a3.326,3.326,0,0,0,.754,2.3h0.251c2.8-.286,8.172-2.622,9.555-4.6l-0.252-1.533Zm40.73,0.767-1.257,1.021v1.022c1.953,1.9,7.311,4.092,10.56,3.576a3.238,3.238,0,0,0,.251-2.3Zm-124.454,2.3h0Zm68.387,3.576-9.051,3.321-0.252,1.277c1.746,1.794,9.39.092,10.811-2.3v-1.277A2.141,2.141,0,0,0,177.678,265.7Zm-16.343,4.6c-2.44,1.047-7.691.386-9.051,2.554-0.147,1.051-.232,1.192.754,1.788,2.815,1.239,10.588-.762,10.057-3.831l-0.754-.256Z"/>
  <path class="cls-3" d="M155.979,1c7.347-.106,23.646,14.381,21.881,22.579-1,4.657-13.858,17.346-18.612,18.314-7.341,1.5-23.829-14.885-22.133-22.579C138.423,13.386,150.614,3.679,155.979,1Zm1.006,7.025L144.158,20.568q0.125,1,.251,2.007c1.1,2.346,10.774,11.993,13.582,12.293,4.911-2.559,9.076-8.374,12.827-12.293V20.317L158.242,8.275ZM250.31,23.065c12-.551,13.479,13.111,4.79,16.154C244.747,42.845,239.781,28.9,250.31,23.065Zm128.815,81.022c10.617,0.113,4.727,7.677,9.075,10.6,2.305,1.275,5.676.532,7.563,2.019,1.225,0.967,1.62,2.429,2.016,4.291,1.593,7.482-5.689,6.1-10.335,8.33l-1.008,6.562c-1.629,3.545-7.549,4.958-10.84,2.019-2.151-1.92-1.537-6.512-3.025-9.086-6.745-.658-14.052-4.3-8.571-11.358,1.842-2.372,7.45-1.163,9.075-3.534C376.561,107.827,371.3,108.362,379.125,104.087Zm1.009,4.291-2.017,1.262c-1.584,14.1-5.057,5.74-11.092,11.358a4.051,4.051,0,0,0,1.008,3.029c14.033,1.579,5.767,4.945,11.344,11.106l1.765-.252c2.32-1.264,1.1-5.729,2.521-7.825,2.047-3.024,7.284-1.85,9.831-4.291a4.051,4.051,0,0,0-1.008-3.029c-12.7-1.375-6.445-3.375-10.84-10.853ZM10.83,179.3c12.092-.531,13.348,14.779,3.529,16.911-7.8,1.695-12.878-7.226-9.075-13.125C6.575,181.087,8.573,180.394,10.83,179.3ZM36.29,250.23c3.252,0.339,5.533,3.19,7.058,5.3l4.79-4.795,1.513-.505c2.768,0.2,4.093,1.469,4.033,4.543l-5.042,5.8c1.825,2.324,4.864,3.385,5.042,7.32-0.548,1.57-2.029,3.595-4.033,2.777-2.526-.405-4.779-3.294-6.05-5.048l-4.538,4.543c-2.345.884-3.484,0.561-5.294-.757l-0.5-3.029,5.042-5.806c-1.9-2.41-4.93-3.382-5.042-7.572C34.08,251.379,34.754,251.122,36.29,250.23Zm286.844,5.762c19.882-.5,21,26.344,3.749,29.712-10.684,2.087-19.332-8.565-16.245-18.954C312.66,259.946,316.913,258.636,323.134,255.992Zm0.25,4.867c-3.9,1.769-7.025,3.01-8.247,7.428-1.9,6.881,4.118,14.14,11.246,12.55C337.473,278.364,336.586,260.517,323.384,260.859Z"/>
  <path class="cls-4" d="M220.089,41.848c3.562-.1,8.084-0.328,10.3,1.018v1.528l-0.754.509c-2.226.983-8.951,0.227-10.552-.764V42.866Zm-9.044.509,1.759,0.255,1,0.509q-0.126.764-.251,1.528a0.965,0.965,0,0,1-.5.509l-9.3,1.528-1.256-.764C202.954,42.144,208.058,43.47,211.045,42.357Zm26.128,0.509c3.271,0.886,7.31.932,9.8,2.546v0.255L246.217,47.7C242.723,47.827,232.628,46.321,237.173,42.866ZM107.29,44.394c3-.086,6.914-0.3,8.793.764q-0.251,1.146-.5,2.292h-10.3a1.982,1.982,0,0,1-.252-1.782l0.5-1.018Zm15.074,1.273c3.086,0.24,8.443,1.59,10.049,3.565l-0.252,1.528c-2.353.949-8.281-1.255-10.551-2.546-0.084-.255-0.167-0.509-0.251-0.764A2.761,2.761,0,0,1,122.364,45.667Zm72.854,0h1.508l0.753,0.764a3.312,3.312,0,0,1-.753,2.292c-2.754.515-6.793,3.059-9.3,2.292l-1-.509a3.312,3.312,0,0,1,.753-2.292Zm-97.977.255h1.507L99.5,46.686a3.313,3.313,0,0,1-.754,2.292c-3.519.4-6.5,2.509-9.8,2.037a3.22,3.22,0,0,1-.251-2.292ZM253,46.686c3.2,0.164,8.449,1.794,10.048,3.819q-0.125.764-.251,1.528c-2.563,1.034-8.24-1.465-10.551-2.8Q252.12,48.85,252,48.468A2.761,2.761,0,0,1,253,46.686Zm-73.357,3.819c1.443,0.319,1.474.595,2.009,1.782-1.339,2.222-7.837,3.794-10.8,3.31a2.3,2.3,0,0,1,.251-2.8Zm-41.2.255c3.011,0.291,7.79,1.355,10.049,2.8v0.255q-0.126.764-.251,1.528l-0.754.255c-2.513.908-7.413-1.327-9.8-2.037a3.135,3.135,0,0,1,.252-2.546Zm-56.525.509,1.759,0.764L83.927,52.8l-0.754,1.528c-3.092,1.044-5.915,4.274-9.3,3.819a3.221,3.221,0,0,1-.251-2.292Zm186.658,1.273c3.437,0.159,7.611,2.542,9.8,4.329a3.872,3.872,0,0,1-.5,2.037l-0.754.255c-2.894-.467-8.282-2.781-9.546-5.093ZM154.52,53.815c3.348-.085,8.417-0.522,10.552.764a3.312,3.312,0,0,1-.754,2.292c-3.6.115-7.951,0.7-10.551-.764V54.579Zm129.129,5.857c3.522,0.175,7.377,2.96,9.546,4.838a3.871,3.871,0,0,1-.5,2.037l-1.508.255-8.29-4.838V60.436Zm-216.554.509,2.261,0.509,0.251,1.273-7.788,6.62-1.256-.255-0.5-1.782ZM298.22,68.075c3.411,0.335,7.04,3.8,9.044,5.856V75.2l-0.754.764h-1.256c-2.273-1.381-7.5-3.867-7.788-7.13ZM54.785,71.385h1.507l0.754,0.764v1.528l-6.281,7.13-1.256-.255-0.754-.509V78.514ZM311.534,78.26h1.508l6.783,6.62c-0.1,1.781-.284,1.525-1.256,2.292h-0.251L310.781,80.3V79.024Zm-266.8,6.62h1.507L47,85.9c-0.306,2.5-3.158,8.058-5.024,9.167-1.38.151-1.979-.065-2.01-2.037Zm278.606,5.347h1.507l6.03,7.639-0.252,1.528-1,.509c-2.981-.842-5.083-5.517-7.035-7.639V90.991ZM37.7,99.9c3.184,0.706.441,9.655-1.758,10.949l-1,.255-1-.764C33.969,106.68,35.761,101.9,37.7,99.9Zm295.689,3.82H334.9c1.349,1.925,5.614,6.709,4.773,9.421l-0.5.764a3.217,3.217,0,0,1-2.261-.764C335.846,110.159,331.684,106.793,333.391,103.723ZM32.677,116.2l2.01,0.764v0.255l-1.507,9.676-1,.764-1.507-.255-0.251-.764C29.529,124.25,31.374,117.672,32.677,116.2Zm309,2.292,2.01,0.764,3.517,8.657a7.63,7.63,0,0,1-1.507,1.528H345.45c-1.665-1.325-5.059-7.7-4.522-9.93ZM30.416,132.75l1.759,0.764c0.087,3.537.106,8.651-1.256,10.949a3.213,3.213,0,0,1-2.261-.764l0.754-10.44Zm317.295,1.528,2.009,0.764c0.519,2.5,3.445,8.693,1.256,10.185l-1.256.255c-1.427-2.29-3.155-7.772-2.763-10.695ZM29.411,149.81l1.507,0.255a0.962,0.962,0,0,1,.5.509c1.332,2.083,1.3,9.136.5,10.695l-2.261-.51c-0.514-2.364-1.706-7.526-.754-9.93Zm322.319,0.764,1.507,0.764c0.681,2.945,1.767,8.377.252,10.949a3.212,3.212,0,0,1-2.261-.764c-0.18-3.486-1.1-7.1-.5-10.44ZM31.672,166.616a3.739,3.739,0,0,1,2.01.509c0.744,3.234,2.314,7.039,1.759,10.44l-1.256.509c-2.624-1.65-2.546-6.662-3.517-9.93Zm320.561,1.018,1.758,0.255q0.126,0.381.251,0.764c1.012,2.357-.014,8.814-1,10.44l-2.261-.51q0.252-5.091.5-10.185ZM35.943,182.912l2.01,0.764,2.512,9.676-0.754.764-2.01-.255c-1.058-2.64-3.505-7.866-2.261-10.694Zm314.782,1.528,2.01,0.764v0.254c0.046,3.38-.828,8.852-2.763,10.44l-1.508-.255q-0.125-.381-0.251-0.764C347.443,192.734,349.453,185.877,350.725,184.44ZM41.219,198.954l1.759,1.018,2.764,8.912-0.754,1.273-1.256.255-1.256-1.019c-0.519-2.756-3.129-6.747-2.261-9.421A4.59,4.59,0,0,1,41.219,198.954Zm305.738,1.782a1.73,1.73,0,0,1,1.507,1.018c0.919,2.5-2.117,8.045-3.266,9.931h-2.009l-0.252-.764C342.2,208.7,345.414,202,346.957,200.736ZM45.992,215.25H47.5c1.248,1.873,4.813,9.215,2.764,10.694a2.011,2.011,0,0,1-2.01-.255c-0.95-3.27-2.735-5.812-3.015-9.675Zm294.182,1.018,1.758,0.764v1.273c-0.55,2.368-3.1,7.053-5.024,8.148a2.013,2.013,0,0,1-2.01-.254c-0.084-.255-0.167-0.51-0.251-0.764C335.309,222.391,338.193,218.278,340.174,216.268Zm-9.044,14c1.284,0.439,1.584.7,1.758,2.291q-3.39,3.693-6.783,7.385c-1.339-.21-2.166-0.869-1.758-2.037C325.583,235.205,328.843,232.041,331.13,230.273Zm-278.606.509,1.758,0.764,4.02,8.912-0.754,1.018-2.261-.509c-1.077-3.151-3.423-5.23-4.02-8.912l0.754-1.018ZM318.82,242.5h1.507l0.754,0.764v1.528c-2.508,1.911-5,5.5-8.793,5.856l-0.754-.509q-0.124-.255-0.251-0.509,0.126-.638.251-1.274ZM61.065,245.3c2.875,0.977,5.817,5.557,7.537,7.893l-0.754,1.528H66.592c-2.645-.848-5.281-4.97-6.783-7.129l0.754-2.038Zm244.189,6.875,1.758,0.254q0.252,0.892.5,1.783c-1.41,1.518-11.313,8.109-10.3,2.292Zm-96.218,3.31,1.507,0.764q0.126,0.636.251,1.273l-0.754,1.019-9.8.763-0.754-.509a3.864,3.864,0,0,1,.5-2.037Zm8.29,0.255c3.436,0.554,7.362.738,9.8,2.291q0.124,0.255.251,0.51l-0.754,1.782-10.3-1.782-0.251-.51q0.126-.891.251-1.782Zm-144.7,1.527c3.338,0.394,6.662,3.826,9.044,5.6a3.866,3.866,0,0,1-.5,2.037l-1.507.255c-2.587-1.983-6.355-3.236-8.039-6.111A2.766,2.766,0,0,1,72.622,257.263Zm120.084,1.783c1.114,0.259,1.009.168,1.507,1.018v1.273c-1.4,1.919-6.729,4.08-9.546,4.329l-0.754-.764a3.31,3.31,0,0,1,.754-2.291Zm97.726,0.254,1.758,0.764,0.252,1.273-0.754,1.019-9.3,2.8-1-.764q0.251-1.146.5-2.292Zm-57.028.51c2.352,0.357,8.448,1.993,9.547,3.819,0.147,1.047.232,1.188-.754,1.782C239.28,266.538,230.227,262.943,233.4,259.81Zm39.945,4.074c2.162-.084,2.337.124,3.014,1.527a1.928,1.928,0,0,1-1,1.274c-2.071,1.128-7.968,1.893-10.3.764q-0.124-.382-0.251-0.764c0.255-1.129.166-1.023,1-1.528Zm-24.118.509c2.908,0.125,8.119.3,10.3,1.528-0.034,1.909-.242,1.749-1.256,2.546-3.2-.778-7.27-0.227-9.8-1.528l-0.252-.764A2.771,2.771,0,0,1,249.231,264.393Zm-71.849,1.273,1.758,1.019q-0.126.891-.251,1.782c-1.752.822-11.476,4.916-10.552,1.019C169.73,267.138,175.046,267.071,177.382,265.666Zm-90.692.255c3.4,0.086,7.475,2.1,10.049,3.565v1.273c-0.332.974,0,.529-0.754,1.018-2.173.789-8.859-2.153-9.8-3.819v-1.019Zm74.362,4.328,1.507,0.255,0.252,0.764q0.124,0.636.251,1.273l-0.754.764c-3.187.492-6.867,1.79-10.049,1.273a3.22,3.22,0,0,1-.251-2.292Zm-57.781.764,9.8,2.292a3.6,3.6,0,0,1-.753,2.546l-10.049-1.782-0.5-1.019C102.085,271.63,102.348,271.726,103.271,271.013ZM144.22,272.8l1.256,0.254,1,0.51q-0.126.764-.251,1.527a0.965,0.965,0,0,1-.5.51c-2.217,1.2-8.524,1.513-10.551.254,0.077-1.41.086-1.5,1.005-2.037Zm-25.122.764c3.361-.088,8.59-0.318,10.8,1.018a3.313,3.313,0,0,1-.753,2.292c-3.735.1-8.529,0.395-10.8-1.019v-1.273Z"/>
</svg>
