<svg xmlns="http://www.w3.org/2000/svg" xmlns:xlink="http://www.w3.org/1999/xlink" version="1.1" width="400px" height="300px" style="shape-rendering:geometricPrecision; text-rendering:geometricPrecision; image-rendering:optimizeQuality; fill-rule:evenodd; clip-rule:evenodd">
<g><path style="opacity:1" fill="#d6af51" d="M 264.5,58.5 C 263.833,58.5 263.5,58.8333 263.5,59.5C 262.833,59.5 262.5,59.8333 262.5,60.5C 261.609,61.1098 260.609,61.4431 259.5,61.5C 259.062,61.5654 258.728,61.3988 258.5,61C 260.964,58.2739 261.797,55.1072 261,51.5C 254.655,47.1468 249.655,41.4802 246,34.5C 245.667,32.1667 245.333,29.8333 245,27.5C 243.482,28.1634 242.315,29.1634 241.5,30.5C 240.395,31.6005 239.062,32.2671 237.5,32.5C 231.491,32.3338 225.491,32.5005 219.5,33C 218.944,33.3826 218.611,33.8826 218.5,34.5C 218.389,35.1174 218.056,35.6174 217.5,36C 223.221,35.6846 228.221,37.3513 232.5,41C 236.968,41.2652 241.302,42.0985 245.5,43.5C 245.5,43.8333 245.5,44.1667 245.5,44.5C 247.5,45.8333 249.167,47.5 250.5,49.5C 250.833,49.5 251.167,49.5 251.5,49.5C 252.362,52.5356 254.196,54.869 257,56.5C 257.483,57.448 257.649,58.448 257.5,59.5C 257.5,60.8333 257.5,62.1667 257.5,63.5C 256.569,67.4287 254.236,70.0953 250.5,71.5C 248.143,71.6633 245.81,71.4966 243.5,71C 245.422,69.54 246.089,67.8733 245.5,66C 246.448,65.5172 247.448,65.3505 248.5,65.5C 249.167,65.5 249.833,65.5 250.5,65.5C 251.5,65.5 252.5,65.5 253.5,65.5C 253.785,63.712 253.452,62.0453 252.5,60.5C 249.946,56.4485 246.946,52.6151 243.5,49C 239.153,47.7129 234.82,47.5462 230.5,48.5C 226.573,43.8749 221.573,42.0415 215.5,43C 214.944,43.3826 214.611,43.8826 214.5,44.5C 214.672,45.4916 214.338,46.1583 213.5,46.5C 212.518,47.1408 211.518,47.8075 210.5,48.5C 209.786,45.9728 209.12,43.4728 208.5,41C 204.167,40.3333 199.833,40.3333 195.5,41C 194.542,44.4722 194.542,47.6389 195.5,50.5C 191.833,50.1667 189.833,48.1667 189.5,44.5C 183.191,41.1381 177.858,42.4714 173.5,48.5C 166.593,45.4128 161.093,47.0795 157,53.5C 156.187,55.4357 155.687,57.4357 155.5,59.5C 150.877,58.4082 149.044,60.0748 150,64.5C 151.011,65.3366 152.178,65.67 153.5,65.5C 153.833,65.5 154.167,65.5 154.5,65.5C 155.552,65.3505 156.552,65.5172 157.5,66C 156.051,67.117 154.384,67.7837 152.5,68C 158.257,68.8387 158.59,70.0054 153.5,71.5C 149.74,70.0742 147.407,67.4075 146.5,63.5C 146.5,62.1667 146.5,60.8333 146.5,59.5C 146.943,56.3762 148.61,54.0429 151.5,52.5C 152.127,51.5832 152.461,50.5832 152.5,49.5C 152.833,49.5 153.167,49.5 153.5,49.5C 154.833,47.5 156.5,45.8333 158.5,44.5C 158.5,44.1667 158.5,43.8333 158.5,43.5C 162.698,42.0985 167.032,41.2652 171.5,41C 175.754,37.1944 180.754,35.6944 186.5,36.5C 186.167,35.8333 185.833,35.1667 185.5,34.5C 185.389,33.8826 185.056,33.3826 184.5,33C 178.449,33.0442 172.449,32.8775 166.5,32.5C 164.938,32.2671 163.605,31.6005 162.5,30.5C 162.5,29.8333 162.167,29.5 161.5,29.5C 160.828,28.7326 159.995,28.0659 159,27.5C 159.035,32.2577 157.702,36.591 155,40.5C 151.038,44.6416 146.704,48.3083 142,51.5C 141.09,54.3101 141.923,56.3101 144.5,57.5C 144.926,59.1388 144.926,60.4721 144.5,61.5C 143.391,61.4431 142.391,61.1098 141.5,60.5C 141.5,59.8333 141.167,59.5 140.5,59.5C 140.5,58.8333 140.167,58.5 139.5,58.5C 139.5,57.8333 139.167,57.5 138.5,57.5C 137.293,54.0542 137.46,50.7209 139,47.5C 144.956,43.8781 149.956,39.2114 154,33.5C 155.264,29.619 155.431,25.619 154.5,21.5C 158.578,23.0566 162.578,24.8899 166.5,27C 170.016,27.4993 173.516,27.3326 177,26.5C 179.261,26.4391 181.261,27.1057 183,28.5C 183.36,26.3921 184.027,24.3921 185,22.5C 189.438,20.0742 193.938,17.7409 198.5,15.5C 199.795,13.6721 200.795,11.6721 201.5,9.5C 202.889,12.4201 204.889,14.9201 207.5,17C 211.37,18.2868 215.036,19.9535 218.5,22C 219.861,23.5843 220.528,25.4176 220.5,27.5C 226.141,26.7093 231.807,26.5426 237.5,27C 241.422,24.8899 245.422,23.0566 249.5,21.5C 247.819,26.8462 248.652,31.8462 252,36.5C 256.94,40.6195 261.607,44.9528 266,49.5C 266.251,52.5943 265.751,55.5943 264.5,58.5 Z M 213.5,46.5 C 214.338,46.1583 214.672,45.4916 214.5,44.5C 219.244,44.0395 223.244,45.5395 226.5,49C 222.535,49.1077 218.868,49.941 215.5,51.5C 210.566,52.9223 206.566,55.7557 203.5,60C 202.072,60.5791 200.738,60.4124 199.5,59.5C 196.728,55.6129 193.061,52.9462 188.5,51.5C 185.132,49.941 181.465,49.1077 177.5,49C 180.756,45.5395 184.756,44.0395 189.5,44.5C 189.833,48.1667 191.833,50.1667 195.5,50.5C 195.811,51.4778 196.478,52.1445 197.5,52.5C 198.318,49.8929 198.818,47.2263 199,44.5C 201,41.8333 203,41.8333 205,44.5C 205.182,47.2263 205.682,49.8929 206.5,52.5C 208.336,51.081 210.336,49.9143 212.5,49C 213.252,48.3292 213.586,47.4959 213.5,46.5 Z M 215.5,37.5 C 214.878,38.6266 214.045,39.6266 213,40.5C 212.481,38.5106 213.314,37.5106 215.5,37.5 Z M 188.5,37.5 C 189.609,37.5569 190.609,37.8902 191.5,38.5C 190.221,39.7152 189.221,39.3818 188.5,37.5 Z M 241.5,30.5 C 240.838,35.495 242.172,39.8284 245.5,43.5C 241.302,42.0985 236.968,41.2652 232.5,41C 228.221,37.3513 223.221,35.6846 217.5,36C 218.056,35.6174 218.389,35.1174 218.5,34.5C 224.176,34.6661 229.843,34.4994 235.5,34C 236.416,33.7216 237.082,33.2216 237.5,32.5C 239.062,32.2671 240.395,31.6005 241.5,30.5 Z M 162.5,30.5 C 163.605,31.6005 164.938,32.2671 166.5,32.5C 166.918,33.2216 167.584,33.7216 168.5,34C 174.157,34.4994 179.824,34.6661 185.5,34.5C 185.833,35.1667 186.167,35.8333 186.5,36.5C 180.754,35.6944 175.754,37.1944 171.5,41C 167.032,41.2652 162.698,42.0985 158.5,43.5C 161.828,39.8284 163.162,35.495 162.5,30.5 Z M 212.5,35.5 C 211.883,35.6107 211.383,35.944 211,36.5C 207.636,34.9889 204.636,32.9889 202,30.5C 199.383,32.8842 196.55,34.8842 193.5,36.5C 191.292,35.0825 190.458,33.0825 191,30.5C 199.113,22.3209 206.613,22.8209 213.5,32C 212.663,33.0113 212.33,34.1779 212.5,35.5 Z M 152.5,49.5 C 152.461,50.5832 152.127,51.5832 151.5,52.5C 148.61,54.0429 146.943,56.3762 146.5,59.5C 145.274,54.6373 147.274,51.304 152.5,49.5 Z M 251.5,49.5 C 256.726,51.304 258.726,54.6373 257.5,59.5C 257.649,58.448 257.483,57.448 257,56.5C 254.196,54.869 252.362,52.5356 251.5,49.5 Z M 191.5,60.5 C 191.5,59.8333 191.833,59.5 192.5,59.5C 194.85,60.8611 197.184,62.1944 199.5,63.5C 198.699,65.0418 198.366,66.7085 198.5,68.5C 197.833,68.1667 197.167,67.8333 196.5,67.5C 195.99,64.3257 194.323,61.9923 191.5,60.5 Z M 207.5,67.5 C 206.833,67.8333 206.167,68.1667 205.5,68.5C 205.634,66.7085 205.301,65.0418 204.5,63.5C 204.833,63.5 205.167,63.5 205.5,63.5C 206.833,62.8333 207.833,61.8333 208.5,60.5C 209.847,59.9717 211.181,59.805 212.5,60C 209.8,61.8567 208.134,64.3567 207.5,67.5 Z"/></g>
<g><path style="opacity:0.718" fill="#764b18" d="M 189.5,44.5 C 184.756,44.0395 180.756,45.5395 177.5,49C 181.465,49.1077 185.132,49.941 188.5,51.5C 178.341,50.1143 170.174,53.4476 164,61.5C 163.517,62.448 163.351,63.448 163.5,64.5C 162.694,63.1325 161.694,61.7992 160.5,60.5C 163.911,55.2976 168.578,51.7976 174.5,50C 170.021,49.4366 166.021,50.6032 162.5,53.5C 160.442,58.318 157.442,62.318 153.5,65.5C 152.178,65.67 151.011,65.3366 150,64.5C 149.044,60.0748 150.877,58.4082 155.5,59.5C 155.687,57.4357 156.187,55.4357 157,53.5C 161.093,47.0795 166.593,45.4128 173.5,48.5C 177.858,42.4714 183.191,41.1381 189.5,44.5 Z"/></g>
<g><path style="opacity:0.92" fill="#855a1f" d="M 213.5,46.5 C 213.586,47.4959 213.252,48.3292 212.5,49C 210.336,49.9143 208.336,51.081 206.5,52.5C 205.682,49.8929 205.182,47.2263 205,44.5C 203,41.8333 201,41.8333 199,44.5C 198.818,47.2263 198.318,49.8929 197.5,52.5C 196.478,52.1445 195.811,51.4778 195.5,50.5C 194.542,47.6389 194.542,44.4722 195.5,41C 199.833,40.3333 204.167,40.3333 208.5,41C 209.12,43.4728 209.786,45.9728 210.5,48.5C 211.518,47.8075 212.518,47.1408 213.5,46.5 Z"/></g>
<g><path style="opacity:0.973" fill="#996825" d="M 161.5,29.5 C 161.726,32.2492 161.393,34.9159 160.5,37.5C 155.144,42.3565 149.978,47.3565 145,52.5C 144.506,54.1341 144.34,55.8008 144.5,57.5C 141.923,56.3101 141.09,54.3101 142,51.5C 146.704,48.3083 151.038,44.6416 155,40.5C 157.702,36.591 159.035,32.2577 159,27.5C 159.995,28.0659 160.828,28.7326 161.5,29.5 Z"/></g>
<g><path style="opacity:0.568" fill="#6f4515" d="M 237.5,32.5 C 237.082,33.2216 236.416,33.7216 235.5,34C 229.843,34.4994 224.176,34.6661 218.5,34.5C 218.611,33.8826 218.944,33.3826 219.5,33C 225.491,32.5005 231.491,32.3338 237.5,32.5 Z"/></g>
<g><path style="opacity:0.359" fill="#6e4514" d="M 166.5,32.5 C 172.449,32.8775 178.449,33.0442 184.5,33C 185.056,33.3826 185.389,33.8826 185.5,34.5C 179.824,34.6661 174.157,34.4994 168.5,34C 167.584,33.7216 166.918,33.2216 166.5,32.5 Z"/></g>
<g><path style="opacity:0.867" fill="#7f541c" d="M 212.5,35.5 C 212.33,34.1779 212.663,33.0113 213.5,32C 206.613,22.8209 199.113,22.3209 191,30.5C 190.458,33.0825 191.292,35.0825 193.5,36.5C 193.167,37.5 192.5,38.1667 191.5,38.5C 190.609,37.8902 189.609,37.5569 188.5,37.5C 188.5,37.1667 188.5,36.8333 188.5,36.5C 189.239,36.631 189.906,36.4643 190.5,36C 187.773,33.0307 187.106,29.6973 188.5,26C 192.831,24.7215 197.164,23.5548 201.5,22.5C 206.85,23.0849 211.85,24.4183 216.5,26.5C 216.946,30.3603 215.613,33.3603 212.5,35.5 Z"/></g>
<g><path style="opacity:0.859" fill="#80531c" d="M 259.5,61.5 C 259.167,62.5 258.5,63.1667 257.5,63.5C 257.5,62.1667 257.5,60.8333 257.5,59.5C 258.726,54.6373 256.726,51.304 251.5,49.5C 251.167,48.1667 250.833,48.1667 250.5,49.5C 249.167,47.5 247.5,45.8333 245.5,44.5C 246.833,44.1667 246.833,43.8333 245.5,43.5C 242.172,39.8284 240.838,35.495 241.5,30.5C 242.315,29.1634 243.482,28.1634 245,27.5C 245.333,29.8333 245.667,32.1667 246,34.5C 249.655,41.4802 254.655,47.1468 261,51.5C 261.797,55.1072 260.964,58.2739 258.5,61C 258.728,61.3988 259.062,61.5654 259.5,61.5 Z"/></g>
<g><path style="opacity:0.276" fill="#764c18" d="M 250.5,65.5 C 246.573,61.2566 242.906,56.7566 239.5,52C 236.386,50.0691 233.053,49.4024 229.5,50C 234.545,52.0496 238.712,55.2163 242,59.5C 242.599,61.5348 242.099,63.2015 240.5,64.5C 240.649,63.448 240.483,62.448 240,61.5C 236.958,58.0673 233.458,55.234 229.5,53C 224.829,52.4625 220.162,51.9625 215.5,51.5C 218.868,49.941 222.535,49.1077 226.5,49C 223.244,45.5395 219.244,44.0395 214.5,44.5C 214.611,43.8826 214.944,43.3826 215.5,43C 221.573,42.0415 226.573,43.8749 230.5,48.5C 234.82,47.5462 239.153,47.7129 243.5,49C 246.946,52.6151 249.946,56.4485 252.5,60.5C 253.452,62.0453 253.785,63.712 253.5,65.5C 252.5,65.5 251.5,65.5 250.5,65.5 Z"/></g>
<g><path style="opacity:0.987" fill="#a0732c" d="M 215.5,51.5 C 220.162,51.9625 224.829,52.4625 229.5,53C 233.458,55.234 236.958,58.0673 240,61.5C 240.483,62.448 240.649,63.448 240.5,64.5C 240.672,65.4916 240.338,66.1583 239.5,66.5C 239.657,65.1266 239.49,63.7932 239,62.5C 235.331,59.8406 231.831,57.0073 228.5,54C 220.064,52.0245 212.73,53.8578 206.5,59.5C 206.957,60.2975 207.624,60.6309 208.5,60.5C 207.833,61.8333 206.833,62.8333 205.5,63.5C 205.631,62.6236 205.298,61.9569 204.5,61.5C 201.799,63.1586 200.132,62.4919 199.5,59.5C 200.738,60.4124 202.072,60.5791 203.5,60C 206.566,55.7557 210.566,52.9223 215.5,51.5 Z"/></g>
<g><path style="opacity:0.996" fill="#a4732a" d="M 188.5,51.5 C 193.061,52.9462 196.728,55.6129 199.5,59.5C 197.685,58.3702 195.685,57.7036 193.5,57.5C 193.119,56.0689 192.119,55.2355 190.5,55C 185.5,54.3333 180.5,54.3333 175.5,55C 170.815,57.9887 167.482,61.6554 165.5,66C 166.244,67.0386 167.244,67.5386 168.5,67.5C 165.661,68.9063 163.994,67.9063 163.5,64.5C 163.351,63.448 163.517,62.448 164,61.5C 170.174,53.4476 178.341,50.1143 188.5,51.5 Z"/></g>
<g><path style="opacity:0.671" fill="#704415" d="M 161.5,29.5 C 162.167,29.5 162.5,29.8333 162.5,30.5C 163.162,35.495 161.828,39.8284 158.5,43.5C 157.167,43.8333 157.167,44.1667 158.5,44.5C 156.5,45.8333 154.833,47.5 153.5,49.5C 153.167,48.1667 152.833,48.1667 152.5,49.5C 147.274,51.304 145.274,54.6373 146.5,59.5C 146.5,60.8333 146.5,62.1667 146.5,63.5C 145.5,63.1667 144.833,62.5 144.5,61.5C 144.926,60.4721 144.926,59.1388 144.5,57.5C 144.34,55.8008 144.506,54.1341 145,52.5C 149.978,47.3565 155.144,42.3565 160.5,37.5C 161.393,34.9159 161.726,32.2492 161.5,29.5 Z"/></g>
<g><path style="opacity:0.455" fill="#90682a" d="M 187.5,57.5 C 188.791,57.2627 189.791,57.596 190.5,58.5C 191.492,58.3284 192.158,58.6618 192.5,59.5C 191.833,59.5 191.5,59.8333 191.5,60.5C 190.504,60.4142 189.671,60.7476 189,61.5C 187.599,59.8078 185.766,59.1412 183.5,59.5C 184.833,58.8333 186.167,58.1667 187.5,57.5 Z"/></g>
<g><path style="opacity:1" fill="#d6b356" d="M 193.5,57.5 C 188.145,55.2589 182.812,55.0922 177.5,57C 179.134,57.4935 180.801,57.6602 182.5,57.5C 176.507,58.8422 171.84,62.1756 168.5,67.5C 167.244,67.5386 166.244,67.0386 165.5,66C 167.482,61.6554 170.815,57.9887 175.5,55C 180.5,54.3333 185.5,54.3333 190.5,55C 192.119,55.2355 193.119,56.0689 193.5,57.5 Z"/></g>
<g><path style="opacity:1" fill="#eadd8d" d="M 193.5,57.5 C 195.685,57.7036 197.685,58.3702 199.5,59.5C 200.132,62.4919 201.799,63.1586 204.5,61.5C 205.298,61.9569 205.631,62.6236 205.5,63.5C 205.167,63.5 204.833,63.5 204.5,63.5C 203.685,64.4293 202.852,65.4293 202,66.5C 201.148,65.4293 200.315,64.4293 199.5,63.5C 197.184,62.1944 194.85,60.8611 192.5,59.5C 192.158,58.6618 191.492,58.3284 190.5,58.5C 189.791,57.596 188.791,57.2627 187.5,57.5C 185.833,57.5 184.167,57.5 182.5,57.5C 180.801,57.6602 179.134,57.4935 177.5,57C 182.812,55.0922 188.145,55.2589 193.5,57.5 Z"/></g>
<g><path style="opacity:1" fill="#d1a84c" d="M 239.5,66.5 C 238.796,68.3442 237.463,68.8442 235.5,68C 231.222,60.715 224.889,57.3817 216.5,58C 219.376,58.4379 222.043,59.4379 224.5,61C 229.053,65.0911 233.72,68.9244 238.5,72.5C 236.801,72.6602 235.134,72.4935 233.5,72C 226.721,65.7364 226.055,66.2364 231.5,73.5C 232.729,74.2811 234.062,74.7811 235.5,75C 236.257,76.5122 237.257,77.8455 238.5,79C 242.004,79.9864 245.337,81.1531 248.5,82.5C 242.785,82.8682 237.452,81.7015 232.5,79C 229.176,75.3745 225.843,71.7078 222.5,68C 219.5,65.997 216.167,65.1636 212.5,65.5C 213.463,64.6365 213.463,63.9698 212.5,63.5C 210.814,64.8569 209.148,66.1902 207.5,67.5C 208.134,64.3567 209.8,61.8567 212.5,60C 211.181,59.805 209.847,59.9717 208.5,60.5C 207.624,60.6309 206.957,60.2975 206.5,59.5C 212.73,53.8578 220.064,52.0245 228.5,54C 231.831,57.0073 235.331,59.8406 239,62.5C 239.49,63.7932 239.657,65.1266 239.5,66.5 Z"/></g>
<g><path style="opacity:1" fill="#d4a849" d="M 138.5,57.5 C 139.167,57.5 139.5,57.8333 139.5,58.5C 140.167,58.5 140.5,58.8333 140.5,59.5C 141.167,59.5 141.5,59.8333 141.5,60.5C 141.557,61.609 141.89,62.609 142.5,63.5C 142.631,64.2389 142.464,64.9056 142,65.5C 141.329,64.7476 140.496,64.4142 139.5,64.5C 138.5,64.1667 137.833,63.5 137.5,62.5C 135.538,60.9827 133.205,60.3161 130.5,60.5C 126.804,60.7826 123.137,61.2826 119.5,62C 110.898,69.7967 101.231,75.7967 90.5,80C 86.6437,80.1773 82.977,80.6773 79.5,81.5C 78.7109,81.2172 78.0442,80.7172 77.5,80C 82.2101,79.6249 86.8768,78.9582 91.5,78C 89.8689,76.2026 87.8689,75.0359 85.5,74.5C 81.3388,75.6467 77.3388,75.6467 73.5,74.5C 80.7005,74.4953 87.7005,73.3287 94.5,71C 102.016,67.0776 109.016,62.4109 115.5,57C 123.259,52.4503 130.926,52.617 138.5,57.5 Z"/></g>
<g><path style="opacity:1" fill="#fe0000" d="M 120.5,65.5 C 119.357,73.0087 122.357,78.342 129.5,81.5C 134.961,84.6957 140.961,86.0291 147.5,85.5C 162.951,86.2716 175.618,80.7716 185.5,69C 187.65,67.5886 189.984,66.7553 192.5,66.5C 192.989,67.9952 193.655,69.3285 194.5,70.5C 194.5,72.1667 194.5,73.8333 194.5,75.5C 193.5,75.5 192.5,75.5 191.5,75.5C 190.51,73.4893 189.51,71.4893 188.5,69.5C 184.074,73.6564 183.574,78.3231 187,83.5C 188.451,85.4641 190.284,86.7974 192.5,87.5C 192.5,88.1667 192.833,88.5 193.5,88.5C 193.5,89.1667 193.833,89.5 194.5,89.5C 195.892,90.522 197.225,90.1887 198.5,88.5C 199.615,84.7367 200.615,81.0701 201.5,77.5C 202.167,77.5 202.833,77.5 203.5,77.5C 203.384,81.7018 204.217,85.7018 206,89.5C 207.915,90.9156 209.415,90.5822 210.5,88.5C 211.167,88.1667 211.833,87.8333 212.5,87.5C 219.9,82.3651 220.9,76.3651 215.5,69.5C 213.512,70.2888 213.179,71.4555 214.5,73C 213.627,74.045 212.627,74.8783 211.5,75.5C 210.833,75.5 210.167,75.5 209.5,75.5C 209.207,72.2457 209.874,69.2457 211.5,66.5C 214.016,66.7553 216.35,67.5886 218.5,69C 233.988,85.2888 252.321,89.7888 273.5,82.5C 278.689,79.9835 282.022,75.9835 283.5,70.5C 284.161,69.2825 284.828,67.9492 285.5,66.5C 296.345,77.3311 309.345,82.6644 324.5,82.5C 320.167,84.212 318.167,87.212 318.5,91.5C 319.522,91.1445 320.189,90.4778 320.5,89.5C 324.189,87.3263 328.189,86.3263 332.5,86.5C 338.862,87.4444 343.695,90.7778 347,96.5C 349.587,101.261 351.587,106.261 353,111.5C 355.207,121.534 357.54,131.534 360,141.5C 362.331,148.162 366.497,153.329 372.5,157C 364.218,161.711 359.552,168.877 358.5,178.5C 358.5,178.833 358.5,179.167 358.5,179.5C 355.954,189.027 353.454,198.694 351,208.5C 349.078,215.408 345.245,220.908 339.5,225C 335.27,226.29 330.936,226.79 326.5,226.5C 323.071,225.619 320.071,223.952 317.5,221.5C 317.167,221.667 316.833,221.833 316.5,222C 317.399,223.652 318.399,225.152 319.5,226.5C 320.167,227.5 320.833,228.5 321.5,229.5C 315.865,230.144 310.199,231.311 304.5,233C 297.104,237.022 290.104,241.522 283.5,246.5C 283.5,246.167 283.5,245.833 283.5,245.5C 284.456,238.445 281.456,233.445 274.5,230.5C 274.158,229.662 273.492,229.328 272.5,229.5C 270.152,227.903 267.486,226.903 264.5,226.5C 251.059,224.778 238.726,227.611 227.5,235C 223.028,240.001 217.695,243.501 211.5,245.5C 210.226,243.007 209.56,240.341 209.5,237.5C 210.167,237.167 210.833,236.833 211.5,236.5C 212.429,237.315 213.429,238.148 214.5,239C 213.179,240.545 213.512,241.711 215.5,242.5C 221.122,236.239 220.455,230.572 213.5,225.5C 212.71,224.599 211.71,223.932 210.5,223.5C 209.15,220.894 207.65,220.894 206,223.5C 204.011,227.253 203.178,231.253 203.5,235.5C 202.391,235.557 201.391,235.89 200.5,236.5C 200.665,233.15 200.498,229.817 200,226.5C 199.417,224.998 198.584,223.665 197.5,222.5C 196.313,221.347 195.313,221.347 194.5,222.5C 193.5,222.833 192.833,223.5 192.5,224.5C 185.229,228.78 183.562,234.78 187.5,242.5C 187.5,243.167 187.167,243.5 186.5,243.5C 173.771,229.977 158.104,224.477 139.5,227C 136.896,227.39 134.562,228.224 132.5,229.5C 131.508,229.328 130.842,229.662 130.5,230.5C 123.067,233.381 119.733,238.715 120.5,246.5C 114.566,241.857 108.233,237.69 101.5,234C 95.707,231.741 89.707,230.575 83.5,230.5C 84.5,229.167 85.5,227.833 86.5,226.5C 87.6006,225.152 88.6006,223.652 89.5,222C 89.1667,221.833 88.8333,221.667 88.5,221.5C 85.929,223.952 82.929,225.619 79.5,226.5C 69.8024,227.735 62.6357,224.068 58,215.5C 53.2432,201.054 49.2432,186.387 46,171.5C 43.828,165.169 39.9947,160.169 34.5,156.5C 38.9027,153.266 42.4027,149.266 45,144.5C 47.6226,137.01 49.4559,129.344 50.5,121.5C 51.9434,117.385 52.9434,113.052 53.5,108.5C 55.7283,101.554 59.395,95.3869 64.5,90C 68.5712,87.8853 72.9045,86.7187 77.5,86.5C 81.4492,87.2246 84.9492,88.8913 88,91.5C 88.2027,89.6092 87.7027,87.9425 86.5,86.5C 85.4206,84.457 83.754,83.1237 81.5,82.5C 87.4495,81.7924 93.4495,80.6258 99.5,79C 106.896,74.9775 113.896,70.4775 120.5,65.5 Z M 205.5,68.5 C 204.071,71.3084 203.405,74.3084 203.5,77.5C 202.833,77.5 202.167,77.5 201.5,77.5C 200.976,75.6943 200.309,74.0276 199.5,72.5C 199.167,71.1667 198.833,69.8333 198.5,68.5C 200.833,67.1667 203.167,67.1667 205.5,68.5 Z"/></g>
<g><path style="opacity:0.443" fill="#764e1a" d="M 142.5,63.5 C 145.221,64.6955 146.387,66.6955 146,69.5C 143.674,67.9343 141.508,66.2676 139.5,64.5C 140.496,64.4142 141.329,64.7476 142,65.5C 142.464,64.9056 142.631,64.2389 142.5,63.5 Z"/></g>
<g><path style="opacity:0.996" fill="#a98235" d="M 199.5,63.5 C 200.315,64.4293 201.148,65.4293 202,66.5C 202.852,65.4293 203.685,64.4293 204.5,63.5C 205.301,65.0418 205.634,66.7085 205.5,68.5C 203.167,67.1667 200.833,67.1667 198.5,68.5C 198.366,66.7085 198.699,65.0418 199.5,63.5 Z"/></g>
<g><path style="opacity:0.678" fill="#875b21" d="M 262.5,63.5 C 260.969,64.9245 261.302,65.5912 263.5,65.5C 261.645,66.6896 259.812,68.0229 258,69.5C 258.044,67.7215 258.711,66.0548 260,64.5C 260.671,63.7476 261.504,63.4142 262.5,63.5 Z"/></g>
<g><path style="opacity:1" fill="#c49239" d="M 191.5,65.5 C 189.473,65.3379 187.473,65.5045 185.5,66C 180.422,68.9063 176.089,72.7397 172.5,77.5C 164.541,82.2749 155.874,84.2749 146.5,83.5C 142.651,83.4987 138.984,83.1654 135.5,82.5C 144.979,83.0602 154.312,82.2269 163.5,80C 166.003,78.4506 166.003,76.7839 163.5,75C 168.813,73.0099 173.48,70.0099 177.5,66C 182.289,64.5107 186.956,64.344 191.5,65.5 Z"/></g>
<g><path style="opacity:0.851" fill="#815821" d="M 77.5,64.5 C 79.4663,65.2545 79.7996,66.4212 78.5,68C 80.3049,68.972 81.9716,70.1387 83.5,71.5C 81.3284,71.6759 78.9951,71.8425 76.5,72C 75.0577,72.3768 74.0577,73.2101 73.5,74.5C 70.6578,74.4717 69.4912,73.1383 70,70.5C 72.3806,69.565 74.8806,69.2317 77.5,69.5C 77.5,67.8333 77.5,66.1667 77.5,64.5 Z"/></g>
<g><path style="opacity:0.882" fill="#8a5c20" d="M 280.5,71.5 C 280.5,73.5 279.5,74.5 277.5,74.5C 277.5,73.8333 277.167,73.5 276.5,73.5C 276.5,72.1667 276.5,70.8333 276.5,69.5C 278.483,69.1568 279.817,69.8235 280.5,71.5 Z"/></g>
<g><path style="opacity:0.918" fill="#7b4f1e" d="M 137.5,62.5 C 133.429,61.1949 129.429,61.3616 125.5,63C 126.056,63.3826 126.389,63.8826 126.5,64.5C 124.379,64.3253 122.379,64.6586 120.5,65.5C 113.896,70.4775 106.896,74.9775 99.5,79C 93.4495,80.6258 87.4495,81.7924 81.5,82.5C 80.8333,82.1667 80.1667,81.8333 79.5,81.5C 82.977,80.6773 86.6437,80.1773 90.5,80C 101.231,75.7967 110.898,69.7967 119.5,62C 123.137,61.2826 126.804,60.7826 130.5,60.5C 133.205,60.3161 135.538,60.9827 137.5,62.5 Z"/></g>
<g><path style="opacity:1" fill="#774e23" d="M 211.5,66.5 C 211.5,65.8333 211.833,65.5 212.5,65.5C 216.167,65.1636 219.5,65.997 222.5,68C 225.843,71.7078 229.176,75.3745 232.5,79C 237.452,81.7015 242.785,82.8682 248.5,82.5C 256.783,83.7383 265.117,83.7383 273.5,82.5C 252.321,89.7888 233.988,85.2888 218.5,69C 216.35,67.5886 214.016,66.7553 211.5,66.5 Z"/></g>
<g><path style="opacity:1" fill="#ac7b2e" d="M 286.5,63.5 C 294.74,69.2092 303.407,74.3759 312.5,79C 319.372,80.0384 326.038,79.5384 332.5,77.5C 334.5,78.1667 336.5,78.8333 338.5,79.5C 334.785,79.423 331.119,79.7564 327.5,80.5C 310.895,81.6913 297.228,76.0246 286.5,63.5 Z"/></g>
<g><path style="opacity:0.831" fill="#794f1a" d="M 248.5,65.5 C 247.448,65.3505 246.448,65.5172 245.5,66C 246.089,67.8733 245.422,69.54 243.5,71C 245.81,71.4966 248.143,71.6633 250.5,71.5C 249.473,73.1942 248.139,74.5275 246.5,75.5C 243.458,75.2671 240.792,74.2671 238.5,72.5C 240.437,71.4097 242.27,70.0764 244,68.5C 243.852,67.175 244.018,66.0084 244.5,65C 246.066,64.235 247.399,64.4017 248.5,65.5 Z"/></g>
<g><path style="opacity:1" fill="#744c21" d="M 286.5,63.5 C 297.228,76.0246 310.895,81.6913 327.5,80.5C 326.71,81.4013 325.71,82.0679 324.5,82.5C 309.345,82.6644 296.345,77.3311 285.5,66.5C 284.828,67.9492 284.161,69.2825 283.5,70.5C 284.5,65.5 282.5,63.5 277.5,64.5C 276.306,63.2227 274.64,62.5561 272.5,62.5C 270.117,62.6374 267.783,62.9707 265.5,63.5C 266.058,62.2101 267.058,61.3768 268.5,61C 274.841,59.9516 280.841,60.7849 286.5,63.5 Z"/></g>
<g><path style="opacity:0.886" fill="#7c4b1f" d="M 191.5,65.5 C 192.167,65.5 192.5,65.8333 192.5,66.5C 189.984,66.7553 187.65,67.5886 185.5,69C 175.618,80.7716 162.951,86.2716 147.5,85.5C 140.961,86.0291 134.961,84.6957 129.5,81.5C 131.565,81.5172 133.565,81.8505 135.5,82.5C 138.984,83.1654 142.651,83.4987 146.5,83.5C 155.874,84.2749 164.541,82.2749 172.5,77.5C 176.089,72.7397 180.422,68.9063 185.5,66C 187.473,65.5045 189.473,65.3379 191.5,65.5 Z"/></g>
<g><path style="opacity:0.996" fill="#d5af54" d="M 277.5,64.5 C 282.5,63.5 284.5,65.5 283.5,70.5C 282.391,70.5569 281.391,70.8902 280.5,71.5C 279.817,69.8235 278.483,69.1568 276.5,69.5C 276.5,70.8333 276.5,72.1667 276.5,73.5C 277.167,73.5 277.5,73.8333 277.5,74.5C 276.209,75.4728 276.209,76.4728 277.5,77.5C 276.277,78.6139 274.944,78.7805 273.5,78C 273.833,77.6667 274.167,77.3333 274.5,77C 273.207,76.51 271.873,76.3433 270.5,76.5C 270.343,75.1266 270.51,73.7932 271,72.5C 273.261,69.7263 275.427,67.0597 277.5,64.5 Z"/></g>
<g><path style="opacity:1" fill="#d8af4f" d="M 320.5,73.5 C 321.099,70.8315 322.766,68.9982 325.5,68C 325.043,67.586 324.709,67.086 324.5,66.5C 328.282,62.7972 332.282,62.6306 336.5,66C 339.616,71.2843 338.283,75.1176 332.5,77.5C 326.038,79.5384 319.372,80.0384 312.5,79C 303.407,74.3759 294.74,69.2092 286.5,63.5C 280.841,60.7849 274.841,59.9516 268.5,61C 267.058,61.3768 266.058,62.2101 265.5,63.5C 265.167,64.5 264.5,65.1667 263.5,65.5C 261.302,65.5912 260.969,64.9245 262.5,63.5C 262.5,62.5 262.5,61.5 262.5,60.5C 263.167,60.5 263.5,60.1667 263.5,59.5C 264.167,59.5 264.5,59.1667 264.5,58.5C 270.295,54.3 276.629,53.1333 283.5,55C 291.679,59.2534 299.346,64.2534 306.5,70C 310.896,72.2995 315.562,73.4661 320.5,73.5 Z M 323.5,71.5 C 326.346,71.5516 328.68,72.5516 330.5,74.5C 326.958,74.8128 323.625,74.4794 320.5,73.5C 321.71,73.0679 322.71,72.4013 323.5,71.5 Z"/></g>
<g><path style="opacity:0.839" fill="#794d18" d="M 330.5,74.5 C 328.68,72.5516 326.346,71.5516 323.5,71.5C 324.374,70.4749 325.541,69.8082 327,69.5C 328.811,70.0779 330.645,70.5779 332.5,71C 333.84,73.1489 333.173,74.3155 330.5,74.5 Z"/></g>
<g><path style="opacity:1" fill="#edd87c" d="M 212.5,65.5 C 211.833,65.5 211.5,65.8333 211.5,66.5C 209.874,69.2457 209.207,72.2457 209.5,75.5C 210.148,77.0858 210.648,78.7525 211,80.5C 213.8,82.1179 215.3,81.2845 215.5,78C 215.167,77.1667 214.833,76.3333 214.5,75.5C 213.313,76.6527 212.313,76.6527 211.5,75.5C 212.627,74.8783 213.627,74.045 214.5,73C 213.179,71.4555 213.512,70.2888 215.5,69.5C 220.9,76.3651 219.9,82.3651 212.5,87.5C 212.539,86.4168 212.873,85.4168 213.5,84.5C 209.076,81.3168 207.076,76.9835 207.5,71.5C 207.5,70.1667 207.5,68.8333 207.5,67.5C 209.148,66.1902 210.814,64.8569 212.5,63.5C 213.463,63.9698 213.463,64.6365 212.5,65.5 Z"/></g>
<g><path style="opacity:1" fill="#e5c15e" d="M 77.5,64.5 C 77.5,66.1667 77.5,67.8333 77.5,69.5C 74.8806,69.2317 72.3806,69.565 70,70.5C 69.4912,73.1383 70.6578,74.4717 73.5,74.5C 77.3388,75.6467 81.3388,75.6467 85.5,74.5C 87.8689,75.0359 89.8689,76.2026 91.5,78C 86.8768,78.9582 82.2101,79.6249 77.5,80C 78.0442,80.7172 78.7109,81.2172 79.5,81.5C 80.1667,81.8333 80.8333,82.1667 81.5,82.5C 83.754,83.1237 85.4206,84.457 86.5,86.5C 86.5654,86.9382 86.3988,87.2716 86,87.5C 82.8847,86.0251 79.718,84.6918 76.5,83.5C 71.6842,82.3503 66.6842,82.1837 61.5,83C 59.6667,84.8333 57.8333,86.6667 56,88.5C 55.5357,87.9056 55.369,87.2389 55.5,86.5C 57.5,85.1667 59.1667,83.5 60.5,81.5C 63.8044,79.5829 67.4711,78.4162 71.5,78C 65.1097,74.7025 64.1097,70.3692 68.5,65C 71.5275,63.6427 74.5275,63.4761 77.5,64.5 Z"/></g>
<g><path style="opacity:1" fill="#e4be59" d="M 183.5,59.5 C 185.766,59.1412 187.599,59.8078 189,61.5C 189.671,60.7476 190.504,60.4142 191.5,60.5C 194.323,61.9923 195.99,64.3257 196.5,67.5C 197.218,74.9138 196.218,81.9138 193.5,88.5C 192.833,88.5 192.5,88.1667 192.5,87.5C 191.859,86.5178 191.193,85.5178 190.5,84.5C 192.527,83.3067 194.027,81.64 195,79.5C 196.103,73.3293 195.937,70.3293 194.5,70.5C 193.655,69.3285 192.989,67.9952 192.5,66.5C 192.5,65.8333 192.167,65.5 191.5,65.5C 186.956,64.344 182.289,64.5107 177.5,66C 173.48,70.0099 168.813,73.0099 163.5,75C 166.003,76.7839 166.003,78.4506 163.5,80C 154.312,82.2269 144.979,83.0602 135.5,82.5C 133.565,81.8505 131.565,81.5172 129.5,81.5C 122.357,78.342 119.357,73.0087 120.5,65.5C 122.379,64.6586 124.379,64.3253 126.5,64.5C 128.73,65.775 130.063,67.775 130.5,70.5C 130.5,72.5 130.5,74.5 130.5,76.5C 137.517,77.0889 144.517,77.7556 151.5,78.5C 152.696,78.1543 152.696,77.6543 151.5,77C 153.058,76.79 154.391,76.29 155.5,75.5C 158.854,75.2525 161.854,74.2525 164.5,72.5C 169.909,69.2655 174.909,65.4322 179.5,61C 180.745,60.2086 182.078,59.7086 183.5,59.5 Z"/></g>
<g><path style="opacity:0.59" fill="#ad863a" d="M 130.5,70.5 C 132.634,71.7035 133.968,73.5368 134.5,76C 141.523,76.6234 148.523,76.4568 155.5,75.5C 154.391,76.29 153.058,76.79 151.5,77C 152.696,77.6543 152.696,78.1543 151.5,78.5C 144.517,77.7556 137.517,77.0889 130.5,76.5C 130.5,74.5 130.5,72.5 130.5,70.5 Z"/></g>
<g><path style="opacity:0.447" fill="#6d4516" d="M 160.5,69.5 C 162.141,70.147 163.474,71.147 164.5,72.5C 161.854,74.2525 158.854,75.2525 155.5,75.5C 155.611,74.8826 155.944,74.3826 156.5,74C 155.584,73.7216 154.918,73.2216 154.5,72.5C 156.5,72.5 158.5,72.5 160.5,72.5C 160.5,71.5 160.5,70.5 160.5,69.5 Z"/></g>
<g><path style="opacity:0.769" fill="#7f521b" d="M 127.5,73.5 C 126.833,73.5 126.5,73.8333 126.5,74.5C 124.273,73.5994 123.273,71.9328 123.5,69.5C 124.833,69.5 126.167,69.5 127.5,69.5C 127.5,70.8333 127.5,72.1667 127.5,73.5 Z"/></g>
<g><path style="opacity:1" fill="#bf9039" d="M 154.5,65.5 C 156.517,64.126 158.517,64.2926 160.5,66C 159.833,66.3333 159.167,66.6667 158.5,67C 159.381,67.7083 160.047,68.5416 160.5,69.5C 160.5,70.5 160.5,71.5 160.5,72.5C 158.5,72.5 156.5,72.5 154.5,72.5C 153.833,72.5 153.5,72.1667 153.5,71.5C 158.59,70.0054 158.257,68.8387 152.5,68C 154.384,67.7837 156.051,67.117 157.5,66C 156.552,65.5172 155.552,65.3505 154.5,65.5 Z"/></g>
<g><path style="opacity:1" fill="#76552d" d="M 209.5,75.5 C 210.167,75.5 210.833,75.5 211.5,75.5C 212.313,76.6527 213.313,76.6527 214.5,75.5C 214.833,76.3333 215.167,77.1667 215.5,78C 215.3,81.2845 213.8,82.1179 211,80.5C 210.648,78.7525 210.148,77.0858 209.5,75.5 Z"/></g>
<g><path style="opacity:1" fill="#e0b854" d="M 238.5,72.5 C 240.792,74.2671 243.458,75.2671 246.5,75.5C 254.475,76.2763 262.475,76.6097 270.5,76.5C 271.873,76.3433 273.207,76.51 274.5,77C 274.167,77.3333 273.833,77.6667 273.5,78C 274.944,78.7805 276.277,78.6139 277.5,77.5C 276.209,76.4728 276.209,75.4728 277.5,74.5C 279.5,74.5 280.5,73.5 280.5,71.5C 281.391,70.8902 282.391,70.5569 283.5,70.5C 282.022,75.9835 278.689,79.9835 273.5,82.5C 265.117,83.7383 256.783,83.7383 248.5,82.5C 245.337,81.1531 242.004,79.9864 238.5,79C 237.257,77.8455 236.257,76.5122 235.5,75C 234.062,74.7811 232.729,74.2811 231.5,73.5C 226.055,66.2364 226.721,65.7364 233.5,72C 235.134,72.4935 236.801,72.6602 238.5,72.5 Z"/></g>
<g><path style="opacity:1" fill="#eeda7a" d="M 192.5,87.5 C 190.284,86.7974 188.451,85.4641 187,83.5C 183.574,78.3231 184.074,73.6564 188.5,69.5C 189.51,71.4893 190.51,73.4893 191.5,75.5C 189.589,75.4257 188.422,74.4257 188,72.5C 187.204,75.0385 187.371,77.3718 188.5,79.5C 189.314,81.2726 190.648,81.7726 192.5,81C 193.337,79.9887 193.67,78.8221 193.5,77.5C 194.338,77.1583 194.672,76.4916 194.5,75.5C 194.5,73.8333 194.5,72.1667 194.5,70.5C 195.937,70.3293 196.103,73.3293 195,79.5C 194.027,81.64 192.527,83.3067 190.5,84.5C 191.193,85.5178 191.859,86.5178 192.5,87.5 Z"/></g>
<g><path style="opacity:0.969" fill="#74542b" d="M 193.5,77.5 C 193.67,78.8221 193.337,79.9887 192.5,81C 190.648,81.7726 189.314,81.2726 188.5,79.5C 189.17,76.4969 190.837,75.8303 193.5,77.5 Z"/></g>
<g><path style="opacity:0.996" fill="#ba8d3e" d="M 191.5,75.5 C 192.5,75.5 193.5,75.5 194.5,75.5C 194.672,76.4916 194.338,77.1583 193.5,77.5C 190.837,75.8303 189.17,76.4969 188.5,79.5C 187.371,77.3718 187.204,75.0385 188,72.5C 188.422,74.4257 189.589,75.4257 191.5,75.5 Z"/></g>
<g><path style="opacity:1" fill="#d7a845" d="M 207.5,71.5 C 207.076,76.9835 209.076,81.3168 213.5,84.5C 212.873,85.4168 212.539,86.4168 212.5,87.5C 211.833,87.8333 211.167,88.1667 210.5,88.5C 207.284,83.1258 206.284,77.4591 207.5,71.5 Z"/></g>
<g><path style="opacity:0.737" fill="#84652e" d="M 60.5,81.5 C 59.1667,83.5 57.5,85.1667 55.5,86.5C 56.1667,83.8333 57.8333,82.1667 60.5,81.5 Z"/></g>
<g><path style="opacity:0.969" fill="#906225" d="M 207.5,67.5 C 207.5,68.8333 207.5,70.1667 207.5,71.5C 206.284,77.4591 207.284,83.1258 210.5,88.5C 209.415,90.5822 207.915,90.9156 206,89.5C 204.217,85.7018 203.384,81.7018 203.5,77.5C 203.405,74.3084 204.071,71.3084 205.5,68.5C 206.167,68.1667 206.833,67.8333 207.5,67.5 Z"/></g>
<g><path style="opacity:0.963" fill="#906224" d="M 329.5,83.5 C 333.967,83.1326 338.3,83.6326 342.5,85C 345.386,89.0472 348.052,93.2138 350.5,97.5C 347.732,94.229 344.732,91.0623 341.5,88C 338.649,86.7114 335.649,86.2114 332.5,86.5C 328.189,86.3263 324.189,87.3263 320.5,89.5C 322.903,86.7915 325.903,84.7915 329.5,83.5 Z"/></g>
<g><path style="opacity:0.992" fill="#aa772b" d="M 196.5,67.5 C 197.167,67.8333 197.833,68.1667 198.5,68.5C 198.833,69.8333 199.167,71.1667 199.5,72.5C 198.95,78.6507 197.283,84.3173 194.5,89.5C 193.833,89.5 193.5,89.1667 193.5,88.5C 196.218,81.9138 197.218,74.9138 196.5,67.5 Z"/></g>
<g><path style="opacity:0.894" fill="#7c501f" d="M 199.5,72.5 C 200.309,74.0276 200.976,75.6943 201.5,77.5C 200.615,81.0701 199.615,84.7367 198.5,88.5C 197.225,90.1887 195.892,90.522 194.5,89.5C 197.283,84.3173 198.95,78.6507 199.5,72.5 Z"/></g>
<g><path style="opacity:0.925" fill="#966725" d="M 76.5,83.5 C 79.718,84.6918 82.8847,86.0251 86,87.5C 86.3988,87.2716 86.5654,86.9382 86.5,86.5C 87.7027,87.9425 88.2027,89.6092 88,91.5C 84.9492,88.8913 81.4492,87.2246 77.5,86.5C 73.5924,85.2015 69.5924,85.3682 65.5,87C 58.3909,92.4902 54.3909,99.6568 53.5,108.5C 52.9434,113.052 51.9434,117.385 50.5,121.5C 49.8333,122.5 49.1667,123.5 48.5,124.5C 49.7519,113.067 52.5852,102.067 57,91.5C 61.6482,84.6648 68.1482,81.9982 76.5,83.5 Z"/></g>
<g><path style="opacity:1" fill="#ba8834" d="M 329.5,83.5 C 335.559,81.7498 341.392,82.4165 347,85.5C 349.295,89.3341 351.295,93.3341 353,97.5C 354.086,103.867 355.253,110.2 356.5,116.5C 354.051,110.391 352.051,104.058 350.5,97.5C 348.052,93.2138 345.386,89.0472 342.5,85C 338.3,83.6326 333.967,83.1326 329.5,83.5 Z"/></g>
<g><path style="opacity:0.878" fill="#6f4721" d="M 77.5,86.5 C 72.9045,86.7187 68.5712,87.8853 64.5,90C 59.395,95.3869 55.7283,101.554 53.5,108.5C 54.3909,99.6568 58.3909,92.4902 65.5,87C 69.5924,85.3682 73.5924,85.2015 77.5,86.5 Z"/></g>
<g><path style="opacity:0.969" fill="#714a21" d="M 332.5,86.5 C 335.649,86.2114 338.649,86.7114 341.5,88C 344.732,91.0623 347.732,94.229 350.5,97.5C 352.051,104.058 354.051,110.391 356.5,116.5C 357.192,127.016 359.692,137.016 364,146.5C 366.731,148.745 369.564,150.745 372.5,152.5C 373.82,154.717 374.82,156.883 375.5,159C 372.421,160.248 369.754,162.081 367.5,164.5C 364.409,169.228 361.409,173.894 358.5,178.5C 359.552,168.877 364.218,161.711 372.5,157C 366.497,153.329 362.331,148.162 360,141.5C 357.54,131.534 355.207,121.534 353,111.5C 351.587,106.261 349.587,101.261 347,96.5C 343.695,90.7778 338.862,87.4444 332.5,86.5 Z"/></g>
<g><path style="opacity:1" fill="#dfb957" d="M 338.5,79.5 C 343.102,79.384 346.935,81.0507 350,84.5C 354.46,89.7053 357.294,95.7053 358.5,102.5C 359.449,107.146 359.615,111.813 359,116.5C 359.759,110.219 360.592,110.552 361.5,117.5C 361.263,120.063 360.763,120.063 360,117.5C 359.667,118.5 359.333,119.5 359,120.5C 358.066,119.142 357.232,117.808 356.5,116.5C 355.253,110.2 354.086,103.867 353,97.5C 351.295,93.3341 349.295,89.3341 347,85.5C 341.392,82.4165 335.559,81.7498 329.5,83.5C 325.903,84.7915 322.903,86.7915 320.5,89.5C 320.189,90.4778 319.522,91.1445 318.5,91.5C 318.167,87.212 320.167,84.212 324.5,82.5C 325.71,82.0679 326.71,81.4013 327.5,80.5C 331.119,79.7564 334.785,79.423 338.5,79.5 Z"/></g>
<g><path style="opacity:1" fill="#d6ae4e" d="M 76.5,83.5 C 68.1482,81.9982 61.6482,84.6648 57,91.5C 52.5852,102.067 49.7519,113.067 48.5,124.5C 47.8826,124.611 47.3826,124.944 47,125.5C 46.6324,132.218 44.4658,138.218 40.5,143.5C 36.0557,146.101 31.7224,148.934 27.5,152C 24.8525,155.248 25.0191,158.415 28,161.5C 31.6833,164.187 35.0166,167.187 38,170.5C 39.8501,172.76 40.3501,175.094 39.5,177.5C 33.8547,167.392 25.188,161.225 13.5,159C 12.2528,157.506 12.2528,156.006 13.5,154.5C 21.5894,152.539 28.7561,148.872 35,143.5C 37.5509,139.065 39.5509,134.399 41,129.5C 43.1883,115.272 47.1883,101.605 53,88.5C 53.7083,87.6195 54.5416,86.9528 55.5,86.5C 55.369,87.2389 55.5357,87.9056 56,88.5C 57.8333,86.6667 59.6667,84.8333 61.5,83C 66.6842,82.1837 71.6842,82.3503 76.5,83.5 Z"/></g>
<g><path style="opacity:1" fill="#cca045" d="M 358.5,102.5 C 361.426,112.265 363.926,122.265 366,132.5C 367.393,136.286 369.059,139.952 371,143.5C 375.136,147.144 379.636,150.144 384.5,152.5C 380.7,152.819 380.534,153.819 384,155.5C 384.749,156.635 384.583,157.635 383.5,158.5C 380.5,160.333 377.5,162.167 374.5,164C 375.793,164.49 377.127,164.657 378.5,164.5C 372.734,167.445 368.901,172.112 367,178.5C 364.177,189.458 361.51,200.458 359,211.5C 357.013,218.309 353.846,224.475 349.5,230C 347.473,231.879 345.14,233.046 342.5,233.5C 338.427,231.865 334.094,230.865 329.5,230.5C 334.267,230.809 338.934,230.309 343.5,229C 346.191,225.647 348.858,222.314 351.5,219C 352.898,214.575 353.898,210.075 354.5,205.5C 355.996,197.851 357.33,190.184 358.5,182.5C 360.129,180.142 361.295,177.476 362,174.5C 364.761,173.501 366.094,171.501 366,168.5C 368.957,165.587 372.124,162.921 375.5,160.5C 376.833,158.167 376.833,155.833 375.5,153.5C 374.583,152.873 373.583,152.539 372.5,152.5C 369.564,150.745 366.731,148.745 364,146.5C 359.692,137.016 357.192,127.016 356.5,116.5C 357.232,117.808 358.066,119.142 359,120.5C 359.333,119.5 359.667,118.5 360,117.5C 360.763,120.063 361.263,120.063 361.5,117.5C 360.592,110.552 359.759,110.219 359,116.5C 359.615,111.813 359.449,107.146 358.5,102.5 Z"/></g>
<g><path style="opacity:1" fill="#c4943a" d="M 48.5,124.5 C 48.3844,137.287 43.051,146.954 32.5,153.5C 31.1667,154.5 31.1667,155.5 32.5,156.5C 32.0233,157.478 31.3567,158.311 30.5,159C 36.6667,162.5 41.5,167.333 45,173.5C 48.1558,185.442 50.9892,197.442 53.5,209.5C 50.4056,204.4 48.5723,198.733 48,192.5C 47.3772,196.932 46.3772,197.265 45,193.5C 44.9565,196.475 45.1231,199.475 45.5,202.5C 43.2636,194.34 41.2636,186.007 39.5,177.5C 40.3501,175.094 39.8501,172.76 38,170.5C 35.0166,167.187 31.6833,164.187 28,161.5C 25.0191,158.415 24.8525,155.248 27.5,152C 31.7224,148.934 36.0557,146.101 40.5,143.5C 44.4658,138.218 46.6324,132.218 47,125.5C 47.3826,124.944 47.8826,124.611 48.5,124.5 Z"/></g>
<g><path style="opacity:0.971" fill="#a37128" d="M 372.5,152.5 C 373.583,152.539 374.583,152.873 375.5,153.5C 376.833,155.833 376.833,158.167 375.5,160.5C 372.124,162.921 368.957,165.587 366,168.5C 366.094,171.501 364.761,173.501 362,174.5C 361.295,177.476 360.129,180.142 358.5,182.5C 358.5,181.5 358.5,180.5 358.5,179.5C 358.5,179.167 358.5,178.833 358.5,178.5C 361.409,173.894 364.409,169.228 367.5,164.5C 369.754,162.081 372.421,160.248 375.5,159C 374.82,156.883 373.82,154.717 372.5,152.5 Z"/></g>
<g><path style="opacity:0.467" fill="#74521f" d="M 390.5,154.5 C 391.5,154.5 392.5,154.5 393.5,154.5C 393.5,156.167 393.5,157.833 393.5,159.5C 391.784,159.629 390.117,159.962 388.5,160.5C 389.287,158.896 390.62,158.229 392.5,158.5C 392.473,156.801 391.806,155.467 390.5,154.5 Z"/></g>
<g><path style="opacity:1" fill="#ead170" d="M 384.5,152.5 C 386.786,152.595 388.786,153.262 390.5,154.5C 391.806,155.467 392.473,156.801 392.5,158.5C 390.62,158.229 389.287,158.896 388.5,160.5C 385.087,161.638 381.754,162.971 378.5,164.5C 377.127,164.657 375.793,164.49 374.5,164C 377.5,162.167 380.5,160.333 383.5,158.5C 384.583,157.635 384.749,156.635 384,155.5C 380.534,153.819 380.7,152.819 384.5,152.5 Z"/></g>
<g><path style="opacity:1" fill="#724921" d="M 50.5,121.5 C 49.4559,129.344 47.6226,137.01 45,144.5C 42.4027,149.266 38.9027,153.266 34.5,156.5C 39.9947,160.169 43.828,165.169 46,171.5C 49.2432,186.387 53.2432,201.054 58,215.5C 62.6357,224.068 69.8024,227.735 79.5,226.5C 71.2225,229.421 64.3892,227.421 59,220.5C 56.6738,216.983 54.8405,213.317 53.5,209.5C 50.9892,197.442 48.1558,185.442 45,173.5C 41.5,167.333 36.6667,162.5 30.5,159C 31.3567,158.311 32.0233,157.478 32.5,156.5C 31.1667,155.5 31.1667,154.5 32.5,153.5C 43.051,146.954 48.3844,137.287 48.5,124.5C 49.1667,123.5 49.8333,122.5 50.5,121.5 Z"/></g>
<g><path style="opacity:1" fill="#d5aa4a" d="M 53.5,209.5 C 54.3879,217.23 57.7213,223.73 63.5,229C 67.3628,230.354 71.3628,230.854 75.5,230.5C 71.3528,231.325 67.0195,231.825 62.5,232C 65.5,232.833 68.5,233.667 71.5,234.5C 71.3764,235.107 71.0431,235.44 70.5,235.5C 59.9693,233.824 52.8027,227.824 49,217.5C 47.3575,212.598 46.1909,207.598 45.5,202.5C 45.1231,199.475 44.9565,196.475 45,193.5C 46.3772,197.265 47.3772,196.932 48,192.5C 48.5723,198.733 50.4056,204.4 53.5,209.5 Z"/></g>
<g><path style="opacity:0.973" fill="#764b1f" d="M 358.5,179.5 C 358.5,180.5 358.5,181.5 358.5,182.5C 357.33,190.184 355.996,197.851 354.5,205.5C 351.554,210.746 349.054,216.413 347,222.5C 345.122,224.043 343.622,225.876 342.5,228C 337.833,228.667 333.167,228.667 328.5,228C 327.584,227.722 326.918,227.222 326.5,226.5C 330.936,226.79 335.27,226.29 339.5,225C 345.245,220.908 349.078,215.408 351,208.5C 353.454,198.694 355.954,189.027 358.5,179.5 Z"/></g>
<g><path style="opacity:1" fill="#a8752b" d="M 354.5,205.5 C 353.898,210.075 352.898,214.575 351.5,219C 348.858,222.314 346.191,225.647 343.5,229C 338.934,230.309 334.267,230.809 329.5,230.5C 326.277,228.971 323.11,227.305 320,225.5C 319.601,225.728 319.435,226.062 319.5,226.5C 318.399,225.152 317.399,223.652 316.5,222C 316.833,221.833 317.167,221.667 317.5,221.5C 320.071,223.952 323.071,225.619 326.5,226.5C 326.918,227.222 327.584,227.722 328.5,228C 333.167,228.667 337.833,228.667 342.5,228C 343.622,225.876 345.122,224.043 347,222.5C 349.054,216.413 351.554,210.746 354.5,205.5 Z"/></g>
<g><path style="opacity:0.953" fill="#986826" d="M 53.5,209.5 C 54.8405,213.317 56.6738,216.983 59,220.5C 64.3892,227.421 71.2225,229.421 79.5,226.5C 82.929,225.619 85.929,223.952 88.5,221.5C 88.8333,221.667 89.1667,221.833 89.5,222C 88.6006,223.652 87.6006,225.152 86.5,226.5C 86.5654,226.062 86.3988,225.728 86,225.5C 82.7065,227.563 79.2065,229.23 75.5,230.5C 71.3628,230.854 67.3628,230.354 63.5,229C 57.7213,223.73 54.3879,217.23 53.5,209.5 Z"/></g>
<g><path style="opacity:1" fill="#cb983c" d="M 194.5,222.5 C 195.927,224.148 196.76,226.148 197,228.5C 197.499,233.489 197.666,238.489 197.5,243.5C 197.5,244.167 197.167,244.5 196.5,244.5C 196.666,240.486 196.499,236.486 196,232.5C 194.315,230.983 192.815,229.316 191.5,227.5C 191.977,226.522 192.643,225.689 193.5,225C 193.272,224.601 192.938,224.435 192.5,224.5C 192.833,223.5 193.5,222.833 194.5,222.5 Z"/></g>
<g><path style="opacity:1" fill="#e8cf74" d="M 213.5,225.5 C 220.455,230.572 221.122,236.239 215.5,242.5C 213.512,241.711 213.179,240.545 214.5,239C 213.429,238.148 212.429,237.315 211.5,236.5C 212.209,235.596 213.209,235.263 214.5,235.5C 214.5,233.833 214.5,232.167 214.5,230.5C 211.24,231.486 209.573,233.819 209.5,237.5C 209.56,240.341 210.226,243.007 211.5,245.5C 211.5,246.167 211.833,246.5 212.5,246.5C 212.842,247.338 213.508,247.672 214.5,247.5C 215.398,248.158 216.398,248.824 217.5,249.5C 216.635,250.583 215.635,250.749 214.5,250C 212.004,248.334 209.671,246.5 207.5,244.5C 207.5,242.833 207.5,241.167 207.5,239.5C 206.74,234.186 208.74,230.353 213.5,228C 212.226,227.023 212.226,226.189 213.5,225.5 Z"/></g>
<g><path style="opacity:1" fill="#d2a040" d="M 210.5,223.5 C 211.71,223.932 212.71,224.599 213.5,225.5C 212.226,226.189 212.226,227.023 213.5,228C 208.74,230.353 206.74,234.186 207.5,239.5C 205.739,233.717 206.739,228.384 210.5,223.5 Z"/></g>
<g><path style="opacity:1" fill="#764a22" d="M 186.5,243.5 C 188.102,245.074 190.102,245.741 192.5,245.5C 192.5,246.167 192.167,246.5 191.5,246.5C 189.801,246.66 188.134,246.494 186.5,246C 182.868,243.37 179.535,240.37 176.5,237C 175.255,236.209 173.922,235.709 172.5,235.5C 160.003,228.934 146.67,226.934 132.5,229.5C 134.562,228.224 136.896,227.39 139.5,227C 158.104,224.477 173.771,229.977 186.5,243.5 Z"/></g>
<g><path style="opacity:1" fill="#efd674" d="M 192.5,224.5 C 192.938,224.435 193.272,224.601 193.5,225C 192.643,225.689 191.977,226.522 191.5,227.5C 192.815,229.316 194.315,230.983 196,232.5C 196.499,236.486 196.666,240.486 196.5,244.5C 193.315,246.826 190.982,249.326 189.5,252C 187.527,252.495 185.527,252.662 183.5,252.5C 180.326,251.99 177.992,250.323 176.5,247.5C 175.71,246.206 174.71,245.039 173.5,244C 173.833,243.833 174.167,243.667 174.5,243.5C 177.214,246.215 180.214,248.549 183.5,250.5C 184.696,250.154 184.696,249.654 183.5,249C 185.708,248.809 187.708,248.309 189.5,247.5C 190.492,247.672 191.158,247.338 191.5,246.5C 192.167,246.5 192.5,246.167 192.5,245.5C 193.222,245.082 193.722,244.416 194,243.5C 194.497,240.854 194.664,238.187 194.5,235.5C 192.775,229.359 190.442,229.025 187.5,234.5C 187.787,236.443 188.787,237.777 190.5,238.5C 189.347,239.313 189.347,240.313 190.5,241.5C 189.675,242.386 188.675,242.719 187.5,242.5C 183.562,234.78 185.229,228.78 192.5,224.5 Z"/></g>
<g><path style="opacity:0.929" fill="#885920" d="M 194.5,222.5 C 195.313,221.347 196.313,221.347 197.5,222.5C 198.584,223.665 199.417,224.998 200,226.5C 200.498,229.817 200.665,233.15 200.5,236.5C 200.834,239.491 199.834,241.824 197.5,243.5C 197.666,238.489 197.499,233.489 197,228.5C 196.76,226.148 195.927,224.148 194.5,222.5 Z"/></g>
<g><path style="opacity:0.976" fill="#8f6122" d="M 210.5,223.5 C 206.739,228.384 205.739,233.717 207.5,239.5C 207.5,241.167 207.5,242.833 207.5,244.5C 206.833,244.167 206.167,243.833 205.5,243.5C 204.25,240.994 203.584,238.327 203.5,235.5C 203.178,231.253 204.011,227.253 206,223.5C 207.65,220.894 209.15,220.894 210.5,223.5 Z"/></g>
<g><path style="opacity:1" fill="#e9c967" d="M 130.5,230.5 C 135.179,230.334 139.845,230.501 144.5,231C 141.118,231.176 137.785,231.676 134.5,232.5C 141.535,233.158 148.535,233.991 155.5,235C 154.906,235.464 154.239,235.631 153.5,235.5C 146.862,234.502 140.195,234.335 133.5,235C 132.584,235.374 131.75,235.874 131,236.5C 130.505,238.473 130.338,240.473 130.5,242.5C 130.25,244.674 129.25,246.341 127.5,247.5C 125.05,247.702 122.717,247.369 120.5,246.5C 119.733,238.715 123.067,233.381 130.5,230.5 Z"/></g>
<g><path style="opacity:0.992" fill="#6e522c" d="M 211.5,236.5 C 210.833,236.833 210.167,237.167 209.5,237.5C 209.573,233.819 211.24,231.486 214.5,230.5C 214.5,232.167 214.5,233.833 214.5,235.5C 213.209,235.263 212.209,235.596 211.5,236.5 Z"/></g>
<g><path style="opacity:1" fill="#e6cf75" d="M 329.5,230.5 C 334.094,230.865 338.427,231.865 342.5,233.5C 340.166,234.124 337.833,234.957 335.5,236C 336.823,236.816 337.489,237.983 337.5,239.5C 337.66,241.199 337.494,242.866 337,244.5C 334.958,237.543 330.458,232.877 323.5,230.5C 322.833,230.167 322.167,229.833 321.5,229.5C 320.833,228.5 320.167,227.5 319.5,226.5C 319.435,226.062 319.601,225.728 320,225.5C 323.11,227.305 326.277,228.971 329.5,230.5 Z"/></g>
<g><path style="opacity:1" fill="#d7af4e" d="M 80.5,231.5 C 85.97,232.961 91.6367,234.128 97.5,235C 105.244,241.085 113.244,246.751 121.5,252C 125.833,252.667 130.167,252.667 134.5,252C 137.595,251.065 139.929,249.231 141.5,246.5C 142.765,245.521 144.099,244.521 145.5,243.5C 145.833,243.833 146.167,244.167 146.5,244.5C 144.395,246.592 142.728,248.925 141.5,251.5C 140.833,251.5 140.5,251.833 140.5,252.5C 139.833,252.5 139.5,252.833 139.5,253.5C 131.85,259.33 123.85,259.83 115.5,255C 108.772,249.941 101.772,245.274 94.5,241C 87.9681,239.07 81.3015,237.904 74.5,237.5C 72.1996,237.522 71.033,238.522 71,240.5C 73.8044,241.868 76.6377,242.868 79.5,243.5C 78.6153,247.784 75.9486,249.284 71.5,248C 66.4362,246.834 64.7695,244.001 66.5,239.5C 66.3433,240.873 66.51,242.207 67,243.5C 69.6856,237.557 74.1856,233.557 80.5,231.5 Z"/></g>
<g><path style="opacity:0.827" fill="#8a5c22" d="M 83.5,230.5 C 89.707,230.575 95.707,231.741 101.5,234C 108.233,237.69 114.566,241.857 120.5,246.5C 122.717,247.369 125.05,247.702 127.5,247.5C 127.082,248.222 126.416,248.722 125.5,249C 131.375,251.298 136.709,250.465 141.5,246.5C 139.929,249.231 137.595,251.065 134.5,252C 130.167,252.667 125.833,252.667 121.5,252C 113.244,246.751 105.244,241.085 97.5,235C 91.6367,234.128 85.97,232.961 80.5,231.5C 81.391,230.89 82.391,230.557 83.5,230.5 Z"/></g>
<g><path style="opacity:1" fill="#eed472" d="M 274.5,230.5 C 281.456,233.445 284.456,238.445 283.5,245.5C 282.837,243.958 282.17,242.291 281.5,240.5C 280.717,238.712 279.384,237.712 277.5,237.5C 276.833,237.5 276.5,237.833 276.5,238.5C 276.357,240.262 276.691,241.929 277.5,243.5C 277.333,243.833 277.167,244.167 277,244.5C 276.292,243.619 275.458,242.953 274.5,242.5C 273.833,242.5 273.5,242.167 273.5,241.5C 275.444,237.884 274.444,235.884 270.5,235.5C 267.686,234.835 264.686,234.502 261.5,234.5C 257.203,234.278 253.203,234.945 249.5,236.5C 248.833,236.5 248.167,236.5 247.5,236.5C 244.458,236.733 241.792,237.733 239.5,239.5C 238.448,239.649 237.448,239.483 236.5,239C 241.133,236.258 246.133,234.591 251.5,234C 257.833,233.667 264.167,233.333 270.5,233C 269.833,232.333 269.167,231.667 268.5,231C 270.473,230.505 272.473,230.338 274.5,230.5 Z"/></g>
<g><path style="opacity:1" fill="#edd77e" d="M 86.5,226.5 C 85.5,227.833 84.5,229.167 83.5,230.5C 82.391,230.557 81.391,230.89 80.5,231.5C 74.1856,233.557 69.6856,237.557 67,243.5C 66.51,242.207 66.3433,240.873 66.5,239.5C 66.8333,237.167 68.1667,235.833 70.5,235.5C 71.0431,235.44 71.3764,235.107 71.5,234.5C 68.5,233.667 65.5,232.833 62.5,232C 67.0195,231.825 71.3528,231.325 75.5,230.5C 79.2065,229.23 82.7065,227.563 86,225.5C 86.3988,225.728 86.5654,226.062 86.5,226.5 Z"/></g>
<g><path style="opacity:1" fill="#a9772c" d="M 264.5,226.5 C 267.486,226.903 270.152,227.903 272.5,229.5C 258.565,226.742 245.565,228.909 233.5,236C 229.5,239.333 225.5,242.667 221.5,246C 219.323,247.202 216.989,247.702 214.5,247.5C 213.508,247.672 212.842,247.338 212.5,246.5C 214.591,246.682 216.591,246.348 218.5,245.5C 230.877,231.977 246.211,225.644 264.5,226.5 Z"/></g>
<g><path style="opacity:0.51" fill="#956f2f" d="M 270.5,235.5 C 263.465,235.326 256.465,235.659 249.5,236.5C 253.203,234.945 257.203,234.278 261.5,234.5C 264.686,234.502 267.686,234.835 270.5,235.5 Z"/></g>
<g><path style="opacity:1" fill="#dcb04b" d="M 172.5,235.5 C 175.949,242.612 181.615,246.612 189.5,247.5C 187.708,248.309 185.708,248.809 183.5,249C 184.696,249.654 184.696,250.154 183.5,250.5C 180.214,248.549 177.214,246.215 174.5,243.5C 174.167,243.667 173.833,243.833 173.5,244C 174.71,245.039 175.71,246.206 176.5,247.5C 172.492,244.83 168.492,242.164 164.5,239.5C 161.854,237.747 158.854,236.747 155.5,236.5C 154.833,236.5 154.167,236.5 153.5,236.5C 153.5,236.167 153.5,235.833 153.5,235.5C 154.239,235.631 154.906,235.464 155.5,235C 148.535,233.991 141.535,233.158 134.5,232.5C 137.785,231.676 141.118,231.176 144.5,231C 139.845,230.501 135.179,230.334 130.5,230.5C 130.842,229.662 131.508,229.328 132.5,229.5C 146.67,226.934 160.003,228.934 172.5,235.5 Z"/></g>
<g><path style="opacity:1" fill="#9b7638" d="M 194.5,235.5 C 193.167,236.5 191.833,237.5 190.5,238.5C 188.787,237.777 187.787,236.443 187.5,234.5C 190.442,229.025 192.775,229.359 194.5,235.5 Z"/></g>
<g><path style="opacity:1" fill="#966e2b" d="M 153.5,235.5 C 153.5,235.833 153.5,236.167 153.5,236.5C 146.823,235.298 140.157,235.298 133.5,236.5C 133.539,239.089 132.539,241.089 130.5,242.5C 130.338,240.473 130.505,238.473 131,236.5C 131.75,235.874 132.584,235.374 133.5,235C 140.195,234.335 146.862,234.502 153.5,235.5 Z"/></g>
<g><path style="opacity:0.99" fill="#9d6d28" d="M 270.5,235.5 C 274.444,235.884 275.444,237.884 273.5,241.5C 271.025,240.313 270.025,238.313 270.5,235.5 Z"/></g>
<g><path style="opacity:0.671" fill="#784b19" d="M 155.5,236.5 C 158.854,236.747 161.854,237.747 164.5,239.5C 163.441,241.555 161.775,242.889 159.5,243.5C 159.611,242.883 159.944,242.383 160.5,242C 158.323,240.798 155.989,240.298 153.5,240.5C 154.347,239.034 155.68,238.2 157.5,238C 156.584,237.722 155.918,237.222 155.5,236.5 Z"/></g>
<g><path style="opacity:1" fill="#6c4621" d="M 264.5,226.5 C 246.211,225.644 230.877,231.977 218.5,245.5C 216.591,246.348 214.591,246.682 212.5,246.5C 211.833,246.5 211.5,246.167 211.5,245.5C 217.695,243.501 223.028,240.001 227.5,235C 238.726,227.611 251.059,224.778 264.5,226.5 Z"/></g>
<g><path style="opacity:0.914" fill="#7b501b" d="M 247.5,236.5 C 248.5,237.833 249.5,239.167 250.5,240.5C 248.396,240.201 246.396,240.534 244.5,241.5C 245.127,242.417 245.461,243.417 245.5,244.5C 243.46,242.823 241.46,241.156 239.5,239.5C 241.792,237.733 244.458,236.733 247.5,236.5 Z"/></g>
<g><path style="opacity:0.29" fill="#714816" d="M 74.5,237.5 C 74.5774,238.75 75.244,239.583 76.5,240C 78.9951,240.157 81.3284,240.324 83.5,240.5C 82.5331,241.984 81.1998,242.984 79.5,243.5C 76.6377,242.868 73.8044,241.868 71,240.5C 71.033,238.522 72.1996,237.522 74.5,237.5 Z"/></g>
<g><path style="opacity:0.847" fill="#82551c" d="M 126.5,237.5 C 126.328,238.492 126.662,239.158 127.5,239.5C 127.5,240.5 127.5,241.5 127.5,242.5C 126.167,242.5 124.833,242.5 123.5,242.5C 123.273,240.067 124.273,238.401 126.5,237.5 Z"/></g>
<g><path style="opacity:1" fill="#d3a94a" d="M 323.5,230.5 C 330.458,232.877 334.958,237.543 337,244.5C 337.494,242.866 337.66,241.199 337.5,239.5C 338.811,241.56 338.811,243.726 337.5,246C 334.213,248.167 330.88,248.667 327.5,247.5C 326.402,246.603 326.402,245.77 327.5,245C 326.956,244.283 326.289,243.783 325.5,243.5C 324.508,243.672 323.842,243.338 323.5,242.5C 326.403,242.898 329.403,242.398 332.5,241C 333.84,238.851 333.173,237.684 330.5,237.5C 323.3,237.505 316.3,238.671 309.5,241C 302.228,245.274 295.228,249.941 288.5,255C 282.729,258.91 276.729,259.41 270.5,256.5C 269.386,253.551 267.386,251.385 264.5,250C 265.094,249.536 265.761,249.369 266.5,249.5C 266.918,250.222 267.584,250.722 268.5,251C 274.705,251.984 280.705,251.317 286.5,249C 292.188,244.638 297.855,240.305 303.5,236C 309.966,232.972 316.632,231.138 323.5,230.5 Z"/></g>
<g><path style="opacity:0.659" fill="#724716" d="M 330.5,237.5 C 333.173,237.684 333.84,238.851 332.5,241C 329.403,242.398 326.403,242.898 323.5,242.5C 321.355,242.083 320.688,241.083 321.5,239.5C 325.089,241.117 328.089,240.45 330.5,237.5 Z"/></g>
<g><path style="opacity:1" fill="#2a3a49" d="M 194.5,235.5 C 194.664,238.187 194.497,240.854 194,243.5C 193.722,244.416 193.222,245.082 192.5,245.5C 190.102,245.741 188.102,245.074 186.5,243.5C 187.167,243.5 187.5,243.167 187.5,242.5C 188.675,242.719 189.675,242.386 190.5,241.5C 189.347,240.313 189.347,239.313 190.5,238.5C 191.833,237.5 193.167,236.5 194.5,235.5 Z"/></g>
<g><path style="opacity:0.965" fill="#875e22" d="M 205.5,243.5 C 205.768,245.099 205.434,246.432 204.5,247.5C 204.649,246.448 204.483,245.448 204,244.5C 202.989,245.337 201.822,245.67 200.5,245.5C 200.737,246.791 200.404,247.791 199.5,248.5C 198.272,246.99 198.272,245.49 199.5,244C 201.387,244.423 203.387,244.256 205.5,243.5 Z"/></g>
<g><path style="opacity:0.98" fill="#815721" d="M 321.5,229.5 C 322.167,229.833 322.833,230.167 323.5,230.5C 316.632,231.138 309.966,232.972 303.5,236C 297.855,240.305 292.188,244.638 286.5,249C 280.705,251.317 274.705,251.984 268.5,251C 267.584,250.722 266.918,250.222 266.5,249.5C 270.571,250.805 274.571,250.638 278.5,249C 277.944,248.617 277.611,248.117 277.5,247.5C 279.621,247.675 281.621,247.341 283.5,246.5C 290.104,241.522 297.104,237.022 304.5,233C 310.199,231.311 315.865,230.144 321.5,229.5 Z"/></g>
<g><path style="opacity:0.055" fill="#5b3612" d="M 325.5,243.5 C 326.289,243.783 326.956,244.283 327.5,245C 326.402,245.77 326.402,246.603 327.5,247.5C 324.664,247.163 323.998,245.829 325.5,243.5 Z"/></g>
<g><path style="opacity:1" fill="#cca246" d="M 277.5,237.5 C 279.384,237.712 280.717,238.712 281.5,240.5C 282.17,242.291 282.837,243.958 283.5,245.5C 283.5,245.833 283.5,246.167 283.5,246.5C 281.621,247.341 279.621,247.675 277.5,247.5C 275.259,246.7 274.259,245.034 274.5,242.5C 275.458,242.953 276.292,243.619 277,244.5C 277.167,244.167 277.333,243.833 277.5,243.5C 276.691,241.929 276.357,240.262 276.5,238.5C 277.167,238.5 277.5,238.167 277.5,237.5 Z"/></g>
<g><path style="opacity:0.996" fill="#a07029" d="M 172.5,235.5 C 173.922,235.709 175.255,236.209 176.5,237C 179.535,240.37 182.868,243.37 186.5,246C 188.134,246.494 189.801,246.66 191.5,246.5C 191.158,247.338 190.492,247.672 189.5,247.5C 181.615,246.612 175.949,242.612 172.5,235.5 Z"/></g>
<g><path style="opacity:0.945" fill="#ac843c" d="M 266.5,249.5 C 265.761,249.369 265.094,249.536 264.5,250C 267.386,251.385 269.386,253.551 270.5,256.5C 268.216,256.025 266.216,255.025 264.5,253.5C 264.5,252.833 264.167,252.5 263.5,252.5C 263.5,251.833 263.167,251.5 262.5,251.5C 260.453,248.74 258.953,245.74 258,242.5C 261.364,244.255 264.198,246.588 266.5,249.5 Z"/></g>
<g><path style="opacity:1" fill="#d7ab4a" d="M 272.5,229.5 C 273.492,229.328 274.158,229.662 274.5,230.5C 272.473,230.338 270.473,230.505 268.5,231C 269.167,231.667 269.833,232.333 270.5,233C 264.167,233.333 257.833,233.667 251.5,234C 246.133,234.591 241.133,236.258 236.5,239C 237.448,239.483 238.448,239.649 239.5,239.5C 233.78,243.039 228.447,247.206 223.5,252C 220.69,252.782 218.023,253.616 215.5,254.5C 214.508,254.672 213.842,254.338 213.5,253.5C 214.557,252.794 214.224,252.461 212.5,252.5C 210.015,250.348 208.349,247.681 207.5,244.5C 209.671,246.5 212.004,248.334 214.5,250C 215.635,250.749 216.635,250.583 217.5,249.5C 216.398,248.824 215.398,248.158 214.5,247.5C 216.989,247.702 219.323,247.202 221.5,246C 225.5,242.667 229.5,239.333 233.5,236C 245.565,228.909 258.565,226.742 272.5,229.5 Z"/></g>
<g><path style="opacity:1" fill="#e4ce79" d="M 204.5,247.5 C 206.629,249.95 209.296,251.617 212.5,252.5C 212.5,253.167 212.833,253.5 213.5,253.5C 213.842,254.338 214.508,254.672 215.5,254.5C 219.028,255.451 222.695,255.618 226.5,255C 225.833,255.667 225.167,256.333 224.5,257C 221.518,257.498 218.518,257.665 215.5,257.5C 212.574,256.302 209.574,255.302 206.5,254.5C 205.185,253.524 203.852,252.524 202.5,251.5C 200.64,252.26 198.973,253.26 197.5,254.5C 194.406,255.213 191.406,256.213 188.5,257.5C 184.501,257.909 180.834,257.075 177.5,255C 181.305,255.618 184.972,255.451 188.5,254.5C 189.492,254.672 190.158,254.338 190.5,253.5C 191.167,253.5 191.5,253.167 191.5,252.5C 192.492,252.672 193.158,252.338 193.5,251.5C 195.784,251.025 197.784,250.025 199.5,248.5C 200.404,247.791 200.737,246.791 200.5,245.5C 201.822,245.67 202.989,245.337 204,244.5C 204.483,245.448 204.649,246.448 204.5,247.5 Z"/></g>
<g><path style="opacity:1" fill="#b38938" d="M 196.5,244.5 C 195.989,247.022 194.989,249.355 193.5,251.5C 192.508,251.328 191.842,251.662 191.5,252.5C 190.833,252.5 190.5,252.833 190.5,253.5C 190.158,254.338 189.492,254.672 188.5,254.5C 186.833,253.833 185.167,253.167 183.5,252.5C 185.527,252.662 187.527,252.495 189.5,252C 190.982,249.326 193.315,246.826 196.5,244.5 Z"/></g>
<g><path style="opacity:0.973" fill="#9b6d29" d="M 147.5,246.5 C 147.5,249.5 147.5,252.5 147.5,255.5C 146.732,254.737 146.232,253.737 146,252.5C 145.601,252.728 145.435,253.062 145.5,253.5C 141.963,258.657 143.297,261.991 149.5,263.5C 152.263,266.252 154.597,269.252 156.5,272.5C 152.123,267.957 147.29,263.957 142,260.5C 142.063,257.513 142.897,254.68 144.5,252C 143.906,251.536 143.239,251.369 142.5,251.5C 144.838,250.49 146.504,248.823 147.5,246.5 Z"/></g>
<g><path style="opacity:1" fill="#d4a84a" d="M 215.5,257.5 C 218.518,257.665 221.518,257.498 224.5,257C 225.167,256.333 225.833,255.667 226.5,255C 222.695,255.618 219.028,255.451 215.5,254.5C 219.247,254.608 222.914,254.108 226.5,253C 229.665,250.665 232.665,248.165 235.5,245.5C 238.57,244.064 239.737,245.064 239,248.5C 232.918,256.887 225.085,259.887 215.5,257.5 Z"/></g>
<g><path style="opacity:1" fill="#d1a548" d="M 168.5,244.5 C 173.259,251.546 179.925,254.879 188.5,254.5C 184.972,255.451 181.305,255.618 177.5,255C 180.834,257.075 184.501,257.909 188.5,257.5C 182.806,258.968 177.139,258.468 171.5,256C 169.649,254.316 167.982,252.483 166.5,250.5C 167.695,249.033 167.695,247.533 166.5,246C 166.836,244.97 167.503,244.47 168.5,244.5 Z"/></g>
<g><path style="opacity:0.996" fill="#9d6d27" d="M 168.5,244.5 C 167.503,244.47 166.836,244.97 166.5,246C 167.695,247.533 167.695,249.033 166.5,250.5C 167.982,252.483 169.649,254.316 171.5,256C 177.139,258.468 182.806,258.968 188.5,257.5C 191.406,256.213 194.406,255.213 197.5,254.5C 194.689,258.078 191.022,260.411 186.5,261.5C 182.818,261.665 179.152,261.499 175.5,261C 174.022,258.961 172.022,258.128 169.5,258.5C 169.649,257.448 169.483,256.448 169,255.5C 166.546,253.559 164.713,251.225 163.5,248.5C 163.627,244.67 165.294,243.337 168.5,244.5 Z"/></g>
<g><path style="opacity:1" fill="#d5af51" d="M 153.5,240.5 C 155.989,240.298 158.323,240.798 160.5,242C 159.944,242.383 159.611,242.883 159.5,243.5C 159.539,244.583 159.873,245.583 160.5,246.5C 159.675,247.386 158.675,247.719 157.5,247.5C 155.712,246.378 153.712,246.211 151.5,247C 149.968,250.008 150.968,251.842 154.5,252.5C 155.532,259.368 159.532,263.535 166.5,265C 169.2,265.253 171.867,265.253 174.5,265C 178.312,268.906 182.979,270.406 188.5,269.5C 187.571,270.315 186.571,271.148 185.5,272C 187.678,272.165 189.511,271.332 191,269.5C 191.483,270.448 191.649,271.448 191.5,272.5C 190.833,272.5 190.5,272.833 190.5,273.5C 189.833,273.5 189.5,273.833 189.5,274.5C 188.508,274.328 187.842,274.662 187.5,275.5C 181.374,276.533 176.041,275.033 171.5,271C 166.99,270.854 162.657,270.021 158.5,268.5C 158.5,268.167 158.5,267.833 158.5,267.5C 156.5,266.167 154.833,264.5 153.5,262.5C 153.167,262.5 152.833,262.5 152.5,262.5C 151.602,259.604 149.935,257.271 147.5,255.5C 147.5,252.5 147.5,249.5 147.5,246.5C 148.596,243.614 150.596,241.614 153.5,240.5 Z"/></g>
<g><path style="opacity:0.796" fill="#764b19" d="M 157.5,247.5 C 156.325,247.281 155.325,247.614 154.5,248.5C 158.029,250.552 160.362,253.552 161.5,257.5C 165.13,261.099 169.463,262.599 174.5,262C 168.62,260.396 164.286,256.896 161.5,251.5C 161.942,250.261 162.609,249.261 163.5,248.5C 164.713,251.225 166.546,253.559 169,255.5C 169.483,256.448 169.649,257.448 169.5,258.5C 172.022,258.128 174.022,258.961 175.5,261C 179.152,261.499 182.818,261.665 186.5,261.5C 183.695,262.319 180.695,262.819 177.5,263C 181.068,267.135 185.401,268.302 190.5,266.5C 190.573,268.027 189.906,269.027 188.5,269.5C 182.979,270.406 178.312,268.906 174.5,265C 171.867,265.253 169.2,265.253 166.5,265C 159.532,263.535 155.532,259.368 154.5,252.5C 150.968,251.842 149.968,250.008 151.5,247C 153.712,246.211 155.712,246.378 157.5,247.5 Z"/></g>
<g><path style="opacity:0.737" fill="#794e19" d="M 250.5,246.5 C 251.791,246.263 252.791,246.596 253.5,247.5C 253.5,248.833 253.5,250.167 253.5,251.5C 249.292,251.87 246.792,254.204 246,258.5C 241.859,263.492 236.692,265.159 230.5,263.5C 226.983,268.011 222.316,270.011 216.5,269.5C 215.5,269.167 214.833,268.5 214.5,267.5C 219.437,268.397 223.437,266.897 226.5,263C 218.454,263.137 211.788,260.304 206.5,254.5C 209.574,255.302 212.574,256.302 215.5,257.5C 225.085,259.887 232.918,256.887 239,248.5C 239.737,245.064 238.57,244.064 235.5,245.5C 236.204,243.656 237.537,243.156 239.5,244C 240.437,246.707 241.77,249.207 243.5,251.5C 240.204,256.297 235.871,259.797 230.5,262C 234.514,262.505 238.181,261.505 241.5,259C 243.706,254.075 246.706,249.908 250.5,246.5 Z"/></g>
<g><path style="opacity:1" fill="#c6973d" d="M 253.5,247.5 C 256.771,252.232 255.604,255.899 250,258.5C 249.768,261.738 248.268,264.238 245.5,266C 241.216,265.543 236.882,265.543 232.5,266C 235.276,267.779 234.943,268.779 231.5,269C 234.817,269.498 238.15,269.665 241.5,269.5C 238.695,270.319 235.695,270.819 232.5,271C 231.211,272.802 229.544,273.969 227.5,274.5C 228.117,272.771 229.117,271.271 230.5,270C 225.687,270.597 221.021,270.431 216.5,269.5C 222.316,270.011 226.983,268.011 230.5,263.5C 236.692,265.159 241.859,263.492 246,258.5C 246.792,254.204 249.292,251.87 253.5,251.5C 253.5,250.167 253.5,248.833 253.5,247.5 Z"/></g>
<g><path style="opacity:1" fill="#debb5a" d="M 250.5,240.5 C 253.5,241.5 255.5,243.5 256.5,246.5C 256.5,249.5 256.5,252.5 256.5,255.5C 254.065,257.271 252.398,259.604 251.5,262.5C 250.833,262.5 250.5,262.833 250.5,263.5C 248.833,264.5 247.5,265.833 246.5,267.5C 245.833,267.5 245.5,267.833 245.5,268.5C 244.167,268.833 242.833,269.167 241.5,269.5C 238.15,269.665 234.817,269.498 231.5,269C 234.943,268.779 235.276,267.779 232.5,266C 236.882,265.543 241.216,265.543 245.5,266C 248.268,264.238 249.768,261.738 250,258.5C 255.604,255.899 256.771,252.232 253.5,247.5C 252.791,246.596 251.791,246.263 250.5,246.5C 248.516,247.694 246.516,247.694 244.5,246.5C 244.863,245.817 245.196,245.15 245.5,244.5C 245.461,243.417 245.127,242.417 244.5,241.5C 246.396,240.534 248.396,240.201 250.5,240.5 Z"/></g>
<g><path style="opacity:0.859" fill="#744a18" d="M 258.5,252.5 C 260.203,254.851 260.703,257.518 260,260.5C 250.817,265.48 244.984,272.813 242.5,282.5C 241.508,282.672 240.842,282.338 240.5,281.5C 241.162,276.858 242.828,272.525 245.5,268.5C 246.167,268.5 246.5,268.167 246.5,267.5C 247.5,265.833 248.833,264.5 250.5,263.5C 251.167,263.5 251.5,263.167 251.5,262.5C 256.559,261.104 258.892,257.77 258.5,252.5 Z"/></g>
<g><path style="opacity:1" fill="#f4e290" d="M 192.5,263.5 C 194.048,263.821 194.715,264.821 194.5,266.5C 192.994,269.469 193.327,272.302 195.5,275C 194.906,275.464 194.239,275.631 193.5,275.5C 193.068,274.29 192.401,273.29 191.5,272.5C 191.649,271.448 191.483,270.448 191,269.5C 189.511,271.332 187.678,272.165 185.5,272C 186.571,271.148 187.571,270.315 188.5,269.5C 189.906,269.027 190.573,268.027 190.5,266.5C 190.427,264.973 191.094,263.973 192.5,263.5 Z"/></g>
<g><path style="opacity:0.882" fill="#865a1f" d="M 213.5,265.5 C 212.518,264.859 211.518,264.193 210.5,263.5C 211.22,269.945 208.387,272.945 202,272.5C 197.115,273.17 194.615,271.17 194.5,266.5C 194.715,264.821 194.048,263.821 192.5,263.5C 197.448,257.895 199.615,259.229 199,267.5C 200.466,269.325 202.299,269.825 204.5,269C 205.051,265.728 205.884,262.561 207,259.5C 208.579,261.041 210.413,262.208 212.5,263C 213.252,263.671 213.586,264.504 213.5,265.5 Z"/></g>
<g><path style="opacity:0.867" fill="#784d19" d="M 145.5,253.5 C 145.908,257.917 148.241,260.917 152.5,262.5C 152.833,263.833 153.167,263.833 153.5,262.5C 154.833,264.5 156.5,266.167 158.5,267.5C 157.167,267.833 157.167,268.167 158.5,268.5C 161.516,272.406 163.183,276.739 163.5,281.5C 162.739,282.391 161.739,283.058 160.5,283.5C 159.671,279.58 158.337,275.914 156.5,272.5C 154.597,269.252 152.263,266.252 149.5,263.5C 143.297,261.991 141.963,258.657 145.5,253.5 Z"/></g>
<g><path style="opacity:1" fill="#d9b150" d="M 213.5,265.5 C 214.338,265.842 214.672,266.508 214.5,267.5C 214.833,268.5 215.5,269.167 216.5,269.5C 221.021,270.431 225.687,270.597 230.5,270C 229.117,271.271 228.117,272.771 227.5,274.5C 223.936,275.423 220.269,275.756 216.5,275.5C 216.5,274.833 216.167,274.5 215.5,274.5C 214.779,272.618 213.779,272.285 212.5,273.5C 211.094,273.973 210.427,274.973 210.5,276.5C 207.431,277.784 204.598,279.45 202,281.5C 199.359,279.108 196.526,277.108 193.5,275.5C 194.239,275.631 194.906,275.464 195.5,275C 193.327,272.302 192.994,269.469 194.5,266.5C 194.615,271.17 197.115,273.17 202,272.5C 208.387,272.945 211.22,269.945 210.5,263.5C 211.518,264.193 212.518,264.859 213.5,265.5 Z M 212.5,273.5 C 213.779,272.285 214.779,272.618 215.5,274.5C 214.391,274.443 213.391,274.11 212.5,273.5 Z"/></g>
<g><path style="opacity:1" fill="#c29640" d="M 256.5,246.5 C 257.865,248.86 259.865,250.527 262.5,251.5C 263.167,251.5 263.5,251.833 263.5,252.5C 264.167,252.5 264.5,252.833 264.5,253.5C 266.097,256.319 266.597,259.319 266,262.5C 261.686,267.144 257.02,271.478 252,275.5C 249.765,280.223 248.931,285.223 249.5,290.5C 248.209,290.737 247.209,290.404 246.5,289.5C 247.777,288.306 248.444,286.64 248.5,284.5C 247.878,278.218 247.044,278.552 246,285.5C 244.855,284.364 243.688,283.364 242.5,282.5C 244.984,272.813 250.817,265.48 260,260.5C 260.703,257.518 260.203,254.851 258.5,252.5C 257.833,253.5 257.167,254.5 256.5,255.5C 256.5,252.5 256.5,249.5 256.5,246.5 Z"/></g>
<g><path style="opacity:1" fill="#f6e695" d="M 216.5,276.5 C 216.833,276.5 217.167,276.5 217.5,276.5C 218.507,278.522 220.174,279.855 222.5,280.5C 221.811,281.774 220.977,281.774 220,280.5C 219.536,281.094 219.369,281.761 219.5,282.5C 219.785,284.288 219.452,285.955 218.5,287.5C 217.692,283.738 216.358,280.238 214.5,277C 215.094,276.536 215.761,276.369 216.5,276.5 Z"/></g>
<g><path style="opacity:0.984" fill="#85591e" d="M 217.5,276.5 C 223.085,277.288 228.752,277.788 234.5,278C 236.32,278.2 237.653,279.034 238.5,280.5C 233.203,279.491 227.869,279.491 222.5,280.5C 220.174,279.855 218.507,278.522 217.5,276.5 Z"/></g>
<g><path style="opacity:1" fill="#d6b054" d="M 141.5,251.5 C 141.833,251.5 142.167,251.5 142.5,251.5C 143.239,251.369 143.906,251.536 144.5,252C 142.897,254.68 142.063,257.513 142,260.5C 147.29,263.957 152.123,267.957 156.5,272.5C 158.337,275.914 159.671,279.58 160.5,283.5C 161.739,283.058 162.739,282.391 163.5,281.5C 165.181,279.992 167.181,278.992 169.5,278.5C 173.01,278.668 176.51,279.001 180,279.5C 182.544,279.664 184.71,278.997 186.5,277.5C 186.5,276.833 186.833,276.5 187.5,276.5C 188.239,276.369 188.906,276.536 189.5,277C 185.783,284.347 188.117,288.18 196.5,288.5C 196.611,289.117 196.944,289.617 197.5,290C 201.045,290.717 204.545,290.55 208,289.5C 209.726,289.946 211.226,290.779 212.5,292C 209.833,292.333 207.167,292.667 204.5,293C 206.119,293.236 207.119,294.069 207.5,295.5C 205.738,296.262 204.738,297.596 204.5,299.5C 203.167,299.5 201.833,299.5 200.5,299.5C 199.375,297.871 198.041,296.371 196.5,295C 189.907,293.889 185.241,290.389 182.5,284.5C 178.521,285.764 174.521,285.764 170.5,284.5C 165.645,284.563 161.645,286.396 158.5,290C 157.207,290.49 155.873,290.657 154.5,290.5C 155.883,286.428 155.716,282.428 154,278.5C 149.956,272.789 144.956,268.122 139,264.5C 137.64,260.863 137.807,257.197 139.5,253.5C 140.167,253.5 140.5,253.167 140.5,252.5C 141.167,252.5 141.5,252.167 141.5,251.5 Z"/></g>
<g><path style="opacity:0.316" fill="#663f13" d="M 169.5,278.5 C 174.975,277.511 180.642,277.178 186.5,277.5C 184.71,278.997 182.544,279.664 180,279.5C 176.51,279.001 173.01,278.668 169.5,278.5 Z"/></g>
<g><path style="opacity:1" fill="#dbb85b" d="M 238.5,280.5 C 239.492,280.328 240.158,280.662 240.5,281.5C 240.842,282.338 241.508,282.672 242.5,282.5C 243.688,283.364 244.855,284.364 246,285.5C 247.044,278.552 247.878,278.218 248.5,284.5C 248.444,286.64 247.777,288.306 246.5,289.5C 244.405,288.588 242.405,287.421 240.5,286C 238.153,285.564 235.819,285.064 233.5,284.5C 229.68,285.719 226.013,285.719 222.5,284.5C 222.027,283.094 221.027,282.427 219.5,282.5C 219.369,281.761 219.536,281.094 220,280.5C 220.977,281.774 221.811,281.774 222.5,280.5C 227.869,279.491 233.203,279.491 238.5,280.5 Z"/></g>
<g><path style="opacity:0.878" fill="#82561d" d="M 191.5,272.5 C 192.401,273.29 193.068,274.29 193.5,275.5C 192.883,275.611 192.383,275.944 192,276.5C 191.333,278.5 191.333,280.5 192,282.5C 198.201,288.622 204.701,288.955 211.5,283.5C 212.95,282.15 213.617,280.484 213.5,278.5C 215.093,281.771 214.426,284.604 211.5,287C 206.65,289.433 201.65,289.933 196.5,288.5C 188.117,288.18 185.783,284.347 189.5,277C 188.906,276.536 188.239,276.369 187.5,276.5C 187.5,276.167 187.5,275.833 187.5,275.5C 188.492,275.672 189.158,275.338 189.5,274.5C 190.167,274.5 190.5,274.167 190.5,273.5C 191.167,273.5 191.5,273.167 191.5,272.5 Z"/></g>
<g><path style="opacity:1" fill="#bf943f" d="M 212.5,273.5 C 213.391,274.11 214.391,274.443 215.5,274.5C 216.167,274.5 216.5,274.833 216.5,275.5C 216.5,275.833 216.5,276.167 216.5,276.5C 215.761,276.369 215.094,276.536 214.5,277C 216.358,280.238 217.692,283.738 218.5,287.5C 219.452,285.955 219.785,284.288 219.5,282.5C 221.027,282.427 222.027,283.094 222.5,284.5C 221.032,286.64 219.365,288.806 217.5,291C 214.179,292.604 210.846,294.104 207.5,295.5C 207.119,294.069 206.119,293.236 204.5,293C 207.167,292.667 209.833,292.333 212.5,292C 211.226,290.779 209.726,289.946 208,289.5C 204.545,290.55 201.045,290.717 197.5,290C 196.944,289.617 196.611,289.117 196.5,288.5C 201.65,289.933 206.65,289.433 211.5,287C 214.426,284.604 215.093,281.771 213.5,278.5C 212.778,277.449 211.778,276.782 210.5,276.5C 210.427,274.973 211.094,273.973 212.5,273.5 Z"/></g>
</svg>