<svg xmlns="http://www.w3.org/2000/svg" xmlns:xlink="http://www.w3.org/1999/xlink" version="1.1" width="400px" height="300px" style="shape-rendering:geometricPrecision; text-rendering:geometricPrecision; image-rendering:optimizeQuality; fill-rule:evenodd; clip-rule:evenodd">
<g><path style="opacity:0.889" fill="#fe0100" d="M 161.5,15.5 C 186.836,15.3334 212.169,15.5 237.5,16C 264.175,17.0012 290.175,21.6678 315.5,30C 348.88,42.7163 369.38,66.5496 377,101.5C 383.255,135.235 382.922,168.902 376,202.5C 367.292,236.208 346.459,258.708 313.5,270C 284.547,279.041 254.88,283.708 224.5,284C 189.348,285.413 154.348,283.746 119.5,279C 94.4776,275.665 71.8109,266.665 51.5,252C 34.6476,236.803 24.1476,217.97 20,195.5C 15.7388,166.886 15.4055,138.22 19,109.5C 25.8889,65.272 51.0556,37.4386 94.5,26C 116.662,20.4788 138.996,16.9788 161.5,15.5 Z M 177.5,19.5 C 202.544,19.0879 227.544,19.9212 252.5,22C 282.072,23.6406 309.739,31.6406 335.5,46C 357.135,62.0826 369.969,83.5826 374,110.5C 379.561,142.472 378.228,174.139 370,205.5C 362.028,232.294 345.194,251.127 319.5,262C 291.169,272.666 261.835,278.333 231.5,279C 193.993,280.849 156.66,279.182 119.5,274C 95.2456,270.255 73.2456,261.255 53.5,247C 38.4224,233.019 28.9224,215.853 25,195.5C 19.0179,164.835 19.0179,134.168 25,103.5C 33.1413,67.6788 54.6413,44.1788 89.5,33C 118.389,24.7259 147.722,20.2259 177.5,19.5 Z"/></g>
<g><path style="opacity:0.991" fill="#fe0000" d="M 151.5,22.5 C 183.168,22.3334 214.835,22.5 246.5,23C 275.048,24.2198 302.048,31.2198 327.5,44C 356.16,61.6521 370.827,87.3187 371.5,121C 372.743,122.87 373.41,125.036 373.5,127.5C 373.489,142.334 373.489,157.167 373.5,172C 372.146,194.399 365.313,215.232 353,234.5C 336.852,252.003 317.018,263.503 293.5,269C 275.752,273.345 257.752,276.012 239.5,277C 212.833,277.667 186.167,277.667 159.5,277C 135.955,276.065 112.955,272.065 90.5,265C 49.042,249.745 27.042,220.245 24.5,176.5C 24.5,158.833 24.5,141.167 24.5,123.5C 25.7229,102.504 32.3896,83.1705 44.5,65.5C 62.4649,46.3443 84.4649,34.1776 110.5,29C 124.201,26.1164 137.867,23.9497 151.5,22.5 Z"/></g>
</svg>